<?xml version="1.0" encoding="utf-8"?>
<svg enable-background="new -0.5 -0.447 1201 676" height="675" viewBox="-.5 -.447 1201 676" width="1200" xmlns="http://www.w3.org/2000/svg" xmlns:xlink="http://www.w3.org/1999/xlink">
   <pattern id="a" height="72" overflow="visible" patternUnits="userSpaceOnUse" viewBox="16.337 -83.646 72 72" width="72" x="120.907" y="618.5">
      <polygon fill="none" points="16.337 -83.646 88.337 -83.646 88.337 -11.646 16.337 -11.646"/>
      <path d="m96.741-19.501c0 0 .957 4.059-2.924 4-3.879-.061-3.943 1.865-3.131 4.285s-.176 4.619-3.342 4.57" fill="none" stroke="#231f20" stroke-width=".75"/>
      <path d="m29.687-68.115c0 0 3.791-1.739 4.498 2.077s2.607 3.5 4.818 2.227c2.213-1.275 4.564-.738 5.141 2.373" fill="none" stroke="#231f20" stroke-width=".75"/>
      <path d="m82.376-54.907c0 0-2.598 3.263-4.951.177-2.355-3.085-3.906-1.944-5.305.19-1.398 2.137-3.738 2.72-5.658.203" fill="none" stroke="#231f20" stroke-width=".75"/>
      <path d="m55.366-54.596c0 0-3.824-1.669-1.451-4.738 2.375-3.071.873-4.276-1.553-5.076-2.424-.8-3.59-2.911-1.654-5.415" fill="none" stroke="#231f20" stroke-width=".75"/>
      <path d="m57.479-58.826c0 0 4.076-.88 2.357-4.359-1.723-3.479-.012-4.363 2.523-4.669 2.535-.305 4.096-2.144 2.693-4.979" fill="none" stroke="#231f20" stroke-width=".75"/>
      <path d="m71.458-68.772c0 0 4.076-.879 2.357-4.359-1.723-3.479-.012-4.363 2.523-4.668s4.096-2.145 2.693-4.98" fill="none" stroke="#231f20" stroke-width=".75"/>
      <path d="m43.726-49.454c0 0 3.678-1.963 1.072-4.838-2.609-2.874-1.207-4.193 1.146-5.182 2.355-.988 3.354-3.184 1.227-5.527" fill="none" stroke="#231f20" stroke-width=".75"/>
      <path d="m26.726-60.708c0 0 1.293 3.965-2.578 4.23s-3.773 2.189-2.762 4.531c1.012 2.346.211 4.621-2.943 4.836" fill="none" stroke="#231f20" stroke-width=".75"/>
      <path d="m23.894-42.481c0 0-2.023-3.646 1.725-4.645 3.752-.998 3.291-2.867 1.85-4.975-1.441-2.109-1.088-4.496 1.971-5.309" fill="none" stroke="#231f20" stroke-width=".75"/>
      <path d="m36.78-66.647c0 0 1.35-3.947 4.604-1.832 3.252 2.115 4.332.52 4.93-1.963.6-2.482 2.607-3.818 5.262-2.094" fill="none" stroke="#231f20" stroke-width=".75"/>
      <path d="m28.671-39.17c0 0-1.766-3.778 2.045-4.513 3.811-.732 3.48-2.631 2.191-4.834-1.289-2.204-.77-4.56 2.336-5.158" fill="none" stroke="#231f20" stroke-width=".75"/>
      <path d="m40.366-44.979c0 0-3.43-2.371-.51-4.928s1.678-4.029-.547-5.281c-2.227-1.252-2.965-3.547-.584-5.633" fill="none" stroke="#231f20" stroke-width=".75"/>
      <path d="m27.351-24.007c0 0 .305-4.159 3.988-2.941 3.686 1.22 4.322-.597 4.273-3.148-.051-2.554 1.553-4.355 4.557-3.36" fill="none" stroke="#231f20" stroke-width=".75"/>
      <path d="m45.835-30.785c0 0-.379 4.152-4.041 2.867-3.662-1.287-4.332.518-4.33 3.07.004 2.553-1.633 4.328-4.619 3.275" fill="none" stroke="#231f20" stroke-width=".75"/>
      <path d="m36.007-56.336c0 0-4.166.179-3.379-3.622.785-3.801-1.094-4.225-3.623-3.881s-4.504-1.04-3.863-4.14" fill="none" stroke="#231f20" stroke-width=".75"/>
      <path d="m49.046-55.68c0 0-1.49 3.895 2.365 4.353 3.852.459 3.66 2.376 2.531 4.664-1.127 2.292-.439 4.602 2.703 4.979" fill="none" stroke="#231f20" stroke-width=".75"/>
      <path d="m19.657-37.972c0 0 1.918 3.701 4.822 1.129 2.906-2.573 4.209-1.154 5.17 1.21.959 2.365 3.143 3.391 5.514 1.291" fill="none" stroke="#231f20" stroke-width=".75"/>
      <path d="m67.356-.267c0 0-1.859-3.734 1.93-4.564 3.793-.83 3.414-2.717 2.068-4.889-1.344-2.168-.883-4.537 2.209-5.213" fill="none" stroke="#231f20" stroke-width=".75"/>
      <path d="m80.899-73.668c0 0 2.469 3.363-1.127 4.826-3.592 1.46-2.898 3.257-1.203 5.168 1.695 1.91 1.645 4.32-1.289 5.513" fill="none" stroke="#231f20" stroke-width=".75"/>
      <path d="m76.286-69.378c0 0-4.088.837-2.404 4.334 1.68 3.498-.039 4.363-2.576 4.643-2.537.277-4.117 2.098-2.746 4.951" fill="none" stroke="#231f20" stroke-width=".75"/>
      <path d="m33.413-82.925c0 0 4.166.199 3.037 3.914-1.127 3.713.705 4.307 3.256 4.193 2.549-.113 4.391 1.443 3.471 4.473" fill="none" stroke="#231f20" stroke-width=".75"/>
      <path d="m55.778-67.936c0 0-4.049-.992-2.234-4.421 1.816-3.43.131-4.362-2.393-4.738-2.525-.376-4.035-2.258-2.553-5.055" fill="none" stroke="#231f20" stroke-width=".75"/>
      <path d="m34.362-75.745c0 0-3.971-1.273-4.217 2.6-.246 3.872-2.17 3.784-4.52 2.783-2.348-1-4.621-.188-4.82 2.971" fill="none" stroke="#231f20" stroke-width=".75"/>
      <path d="m24.741-19.501c0 0 .957 4.059-2.924 4-3.879-.061-3.943 1.865-3.131 4.285s-.176 4.619-3.342 4.57" fill="none" stroke="#231f20" stroke-width=".75"/>
      <path d="m86.655-50.167c0 0-2.271 3.498-4.912.654-2.641-2.843-4.076-1.559-5.26.701-1.188 2.262-3.459 3.068-5.613.748" fill="none" stroke="#231f20" stroke-width=".75"/>
      <path d="m66.716-82.05c0 0 .957 4.061-2.924 4-3.881-.059-3.945 1.865-3.133 4.284.814 2.423-.176 4.622-3.34 4.573" fill="none" stroke="#231f20" stroke-width=".75"/>
      <path d="m60.218-51.844c0 0-1.635-3.835 2.199-4.44 3.832-.604 3.568-2.51 2.354-4.756s-.613-4.583 2.512-5.074" fill="none" stroke="#231f20" stroke-width=".75"/>
      <path d="m91.214-50.038c0 0-4.148-.441-2.807-4.082 1.34-3.643-.455-4.34-3.008-4.375-2.555-.033-4.303-1.695-3.207-4.665" fill="none" stroke="#231f20" stroke-width=".75"/>
      <path d="m78.454-45.424c0 0 3.469-2.318 4.771 1.338 1.305 3.654 3.129 3.041 5.111 1.433 1.982-1.61 4.389-1.454 5.451 1.527" fill="none" stroke="#231f20" stroke-width=".75"/>
      <path d="m88.015-20.914c0 0-.758 4.102-4.287 2.484-3.527-1.615-4.361.119-4.592 2.662s-2.021 4.158-4.898 2.84" fill="none" stroke="#231f20" stroke-width=".75"/>
      <path d="m45.114-39.688c0 0 4.135.553 2.699 4.157-1.439 3.605.338 4.351 2.887 4.453 2.551.102 4.254 1.811 3.082 4.749" fill="none" stroke="#231f20" stroke-width=".75"/>
      <path d="m31.132-40.216c0 0 1.199 3.994 4.531 2.006 3.332-1.992 4.348-.355 4.854 2.146.504 2.502 2.461 3.914 5.176 2.292" fill="none" stroke="#231f20" stroke-width=".75"/>
      <path d="m18.132-23.632c0 0 1.199 3.994 4.531 2.006 3.332-1.992 4.348-.355 4.854 2.146.504 2.502 2.461 3.914 5.176 2.291" fill="none" stroke="#231f20" stroke-width=".75"/>
      <path d="m54.214-14.632c0 0 4.154-.361 2.887-4.029-1.27-3.667.539-4.33 3.092-4.313 2.553.016 4.334-1.611 3.299-4.602" fill="none" stroke="#231f20" stroke-width=".75"/>
      <path d="m50.827-23.56c0 0 3.211 2.66.082 4.953-3.131 2.293-2.02 3.869.09 5.307 2.109 1.439 2.648 3.791.096 5.662" fill="none" stroke="#231f20" stroke-width=".75"/>
      <path d="m67.163-20.052c0 0-3.373-2.457-.389-4.938 2.982-2.482 1.777-3.986-.418-5.292-2.193-1.308-2.875-3.62-.443-5.645" fill="none" stroke="#231f20" stroke-width=".75"/>
      <path d="m72.276-24.212c0 0 2.818-3.074 4.951.17 2.131 3.242 3.76 2.213 5.305.18 1.545-2.031 3.92-2.451 5.658.195" fill="none" stroke="#231f20" stroke-width=".75"/>
      <path d="m56.509-51.163c0 0 4.162.239 3.002 3.941-1.164 3.701.664 4.311 3.217 4.223 2.551-.089 4.377 1.485 3.43 4.505" fill="none" stroke="#231f20" stroke-width=".75"/>
      <path d="m48.011-43.231c0 0-.387 4.152 3.447 3.561 3.834-.594 4.164 1.305 3.691 3.813-.471 2.51.813 4.552 3.939 4.07" fill="none" stroke="#231f20" stroke-width=".75"/>
      <path d="m35.812-40.936c0 0 1.064-4.032 4.461-2.156 3.396 1.877 4.359.208 4.779-2.311.42-2.518 2.326-3.994 5.098-2.464" fill="none" stroke="#231f20" stroke-width=".75"/>
      <path d="m17.542-70.469c0 0 4.164-.213 3.027-3.923-1.141-3.709.691-4.309 3.242-4.202 2.551.105 4.387-1.457 3.459-4.483" fill="none" stroke="#231f20" stroke-width=".75"/>
      <path d="m52.024-25.996c0 0-3.816-1.676-4.463 2.15-.645 3.828-2.549 3.541-4.781 2.304s-4.574-.663-5.102 2.459" fill="none" stroke="#231f20" stroke-width=".75"/>
      <path d="m100.132-30.827c0 0-1.588-3.855-4.707-1.547-3.119 2.311-4.293.783-5.043-1.656-.75-2.44-2.834-3.649-5.379-1.766" fill="none" stroke="#231f20" stroke-width=".75"/>
      <path d="m84.056-34.804c0 0-1.016 4.043-4.436 2.205-3.416-1.838-4.361-.158-4.754 2.364-.391 2.522-2.279 4.02-5.068 2.521" fill="none" stroke="#231f20" stroke-width=".75"/>
      <path d="m75.974-22.834c0 0-.123 4.167-3.857 3.109-3.732-1.061-4.293.782-4.131 3.33.16 2.549-1.365 4.417-4.41 3.554" fill="none" stroke="#231f20" stroke-width=".75"/>
      <path d="m67.69-35.709c0 0 2.018-3.649 4.852-.995 2.832 2.651 4.174 1.27 5.199-1.069 1.023-2.338 3.236-3.302 5.545-1.138" fill="none" stroke="#231f20" stroke-width=".75"/>
      <path d="m57.626-24.566c0 0-1.963-3.68 1.807-4.612 3.766-.932 3.338-2.81 1.934-4.942-1.402-2.133-1.008-4.512 2.064-5.271" fill="none" stroke="#231f20" stroke-width=".75"/>
      <path d="m78.351-.116c0 0-1.295-3.965 2.578-4.23 3.871-.266 3.773-2.189 2.76-4.533-1.012-2.344-.211-4.619 2.947-4.836" fill="none" stroke="#231f20" stroke-width=".75"/>
      <path d="m62.749-49.63c0 0 4.094-.813 3.893 3.063-.195 3.876 1.725 4.009 4.174 3.283 2.447-.725 4.609.34 4.447 3.503" fill="none" stroke="#231f20" stroke-width=".75"/>
      <path d="m82.923-70.829c0 0 4.135-.531 3.674 3.322s1.445 4.117 3.938 3.559c2.492-.557 4.578.654 4.201 3.797" fill="none" stroke="#231f20" stroke-width=".75"/>
      <path d="m81.405-29.81c0 0 2.412 3.401 4.936.453 2.52-2.953 4.006-1.727 5.283.482 1.279 2.21 3.582 2.924 5.639.52" fill="none" stroke="#231f20" stroke-width=".75"/>
      <path d="m61.796-20.813c0 0-3.721 1.879-1.182 4.813 2.545 2.932 1.111 4.219-1.264 5.154-2.375.934-3.424 3.107-1.352 5.498" fill="none" stroke="#231f20" stroke-width=".75"/>
      <path d="m44.565-3.331c0 0-3.57-2.156-.811-4.887 2.758-2.729 1.43-4.123-.869-5.236-2.297-1.115-3.176-3.361-.924-5.588" fill="none" stroke="#231f20" stroke-width=".75"/>
      <path d="m36.312-17.952c0 0 1.195 3.996-2.684 4.166-3.875.169-3.826 2.094-2.871 4.463.953 2.368.098 4.622-3.064 4.76" fill="none" stroke="#231f20" stroke-width=".75"/>
      <path d="m19.214-50.038c0 0-4.148-.441-2.807-4.082 1.34-3.643-.455-4.34-3.008-4.375-2.555-.033-4.303-1.695-3.207-4.665" fill="none" stroke="#231f20" stroke-width=".75"/>
      <path d="m6.454-45.424c0 0 3.469-2.318 4.771 1.338 1.305 3.654 3.129 3.041 5.111 1.433 1.982-1.61 4.389-1.454 5.451 1.527" fill="none" stroke="#231f20" stroke-width=".75"/>
      <path d="m16.015-20.914c0 0-.758 4.102-4.287 2.484-3.527-1.615-4.361.119-4.592 2.662s-2.021 4.158-4.898 2.84" fill="none" stroke="#231f20" stroke-width=".75"/>
      <path d="m .276-24.212c0 0 2.818-3.074 4.951.17 2.131 3.242 3.76 2.213 5.305.18 1.545-2.031 3.92-2.451 5.658.195" fill="none" stroke="#231f20" stroke-width=".75"/>
      <path d="m28.132-30.827c0 0-1.588-3.855-4.707-1.547-3.119 2.311-4.293.783-5.043-1.656-.75-2.44-2.834-3.649-5.379-1.766" fill="none" stroke="#231f20" stroke-width=".75"/>
      <path d="m10.923-70.829c0 0 4.135-.531 3.674 3.322s1.445 4.117 3.938 3.559c2.492-.557 4.578.654 4.201 3.797" fill="none" stroke="#231f20" stroke-width=".75"/>
      <path d="m9.405-29.81c0 0 2.412 3.401 4.936.453 2.52-2.953 4.006-1.727 5.283.482 1.279 2.21 3.582 2.924 5.639.52" fill="none" stroke="#231f20" stroke-width=".75"/>
      <path d="m96.741-91.501c0 0 .957 4.059-2.924 4-3.879-.061-3.943 1.865-3.131 4.285s-.176 4.619-3.342 4.57" fill="none" stroke="#231f20" stroke-width=".75"/>
      <path d="m67.356-72.267c0 0-1.859-3.734 1.93-4.564 3.793-.83 3.414-2.717 2.068-4.889-1.344-2.168-.883-4.537 2.209-5.213" fill="none" stroke="#231f20" stroke-width=".75"/>
      <path d="m24.741-91.501c0 0 .957 4.059-2.924 4-3.879-.061-3.943 1.865-3.131 4.285s-.176 4.619-3.342 4.57" fill="none" stroke="#231f20" stroke-width=".75"/>
      <path d="m50.827-95.56c0 0 3.211 2.66.082 4.953-3.131 2.293-2.02 3.869.09 5.307 2.109 1.439 2.648 3.791.096 5.662" fill="none" stroke="#231f20" stroke-width=".75"/>
      <path d="m78.351-72.116c0 0-1.295-3.965 2.578-4.23 3.871-.266 3.773-2.189 2.76-4.533-1.012-2.344-.211-4.619 2.947-4.836" fill="none" stroke="#231f20" stroke-width=".75"/>
      <path d="m61.796-92.813c0 0-3.721 1.879-1.182 4.813 2.545 2.932 1.111 4.219-1.264 5.154-2.375.934-3.424 3.107-1.352 5.498" fill="none" stroke="#231f20" stroke-width=".75"/>
      <path d="m44.565-75.331c0 0-3.57-2.156-.811-4.887 2.758-2.729 1.43-4.123-.869-5.236-2.297-1.115-3.176-3.361-.924-5.588" fill="none" stroke="#231f20" stroke-width=".75"/>
      <path d="m36.312-89.952c0 0 1.195 3.996-2.684 4.166-3.875.169-3.826 2.094-2.871 4.463.953 2.368.098 4.622-3.064 4.76" fill="none" stroke="#231f20" stroke-width=".75"/>
   </pattern>
   <g display="none">
      <rect display="inline" fill="#f7f473" height="86.354" width="2737.371" x="-882.284" y="-791.241"/>
      <rect display="inline" fill="#c8ae87" height="86.355" width="2737.371" x="-882.284" y="-704.887"/>
      <rect display="inline" fill="#b04b32" height="86.354" width="2737.371" x="-882.284" y="-618.531"/>
      <rect display="inline" fill="#fff" height="86.354" width="2737.371" x="-882.284" y="-532.178"/>
      <rect display="inline" fill="#489562" height="86.356" width="2737.371" x="-882.284" y="-445.824"/>
      <rect display="inline" fill="#2e6a93" height="86.354" width="2737.371" x="-882.284" y="-359.468"/>
   </g>
   <rect fill="#d83540" height="675" width="1200" y=".053"/>
   <path d="m923.725 1898.432c0 0 4.787-1.4 14.01-4.257 9.221-2.857 22.875-7.174 40.514-13.251 35.248-12.197 86.543-31.298 149.154-61.836 31.285-15.289 65.375-33.48 101.484-55.285 36.107-21.8 74.244-47.214 113.473-76.918 39.217-29.699 79.527-63.698 119.775-102.532 40.242-38.822 80.418-82.49 119.178-131.248 38.748-48.749 76.082-102.589 110.479-161.389 34.396-58.782 65.865-122.515 92.877-190.62 27.021-68.092 49.58-140.547 66.307-216.41 16.73-75.856 27.629-155.109 31.547-236.582 3.93-81.472.889-165.15-9.949-249.798-5.414-42.321-12.771-84.887-22.145-127.536-4.688-21.325-9.875-42.672-15.574-64.02-2.85-10.674-5.82-21.35-8.93-32.022-1.553-5.336-3.137-10.672-4.752-16.008-1.537-5.054-3.076-10.11-4.615-15.169-22.852-75.11-53.953-147.871-93.486-216.946-39.5-69.056-87.461-134.411-143.146-194.174-55.648-59.761-119.014-113.87-188.26-160.426-69.225-46.579-144.289-85.562-222.707-115.672-78.418-30.144-160.146-51.406-242.713-63.391-82.582-12.008-165.982-14.756-248.201-8.587-82.238 6.146-163.301 21.193-241.72 44.219-4.901 1.438-9.793 2.908-14.674 4.408-4.398 1.343-8.792 2.685-13.177 4.024-8.542 2.665-17.011 5.451-25.407 8.357-16.79 5.813-33.283 12.111-49.468 18.873-32.37 13.521-63.509 28.906-93.31 45.969-59.601 34.111-113.827 75.003-161.738 120.608-47.93 45.587-89.5 95.838-124.311 148.188-34.839 52.356-62.923 106.764-84.702 160.819-21.805 54.076-37.325 107.782-47.698 159.283-10.387 51.523-15.644 100.848-17.28 146.761-1.635 45.93.334 88.462 4.326 126.86 3.988 38.411 9.988 72.7 16.483 102.432 6.504 29.735 13.501 54.921 19.719 75.271 1.414 4.613 2.745 8.958 3.993 13.028 1.233 3.938 2.425 7.592 3.545 10.974 2.25 6.761 4.242 12.41 5.882 16.945 1.64 4.535 2.931 7.954 3.8 10.244.876 2.287 1.321 3.449 1.321 3.449l-140.977 69.707c0 0-.606-1.404-1.798-4.169-1.185-2.77-2.944-6.902-5.189-12.389-2.245-5.485-4.979-12.322-8.084-20.506-1.548-4.094-3.195-8.521-4.909-13.288-.847-2.388-1.723-4.855-2.627-7.403-.914-2.641-1.855-5.362-2.826-8.168-8.008-23.353-17.141-52.342-25.926-86.764-8.773-34.415-17.199-74.273-23.475-119.191-6.277-44.903-10.394-94.88-10.42-149.155-.023-54.255 4.063-112.824 14.136-174.357 10.06-61.508 26.125-125.986 49.694-191.376 23.545-65.367 54.617-131.633 94.023-196.079 39.375-64.432 87.099-127.004 143.058-184.643 55.927-57.648 120.072-110.311 191.439-155.162 35.677-22.431 73.146-42.921 112.228-61.189 19.541-9.134 39.485-17.714 59.808-25.71 10.162-3.997 20.419-7.849 30.767-11.553 2.591-.915 5.184-1.831 7.779-2.747 2.671-.925 5.344-1.85 8.018-2.775 5.602-1.931 11.219-3.828 16.852-5.691 90.118-29.82 184.313-50.795 280.722-61.453 96.387-10.689 194.98-11.044 293.279-.393 98.283 10.621 196.25 32.256 290.979 64.673 94.729 32.381 186.184 75.531 271.449 128.268 85.289 52.708 164.354 114.973 234.832 184.848 70.514 69.863 132.416 147.293 184.363 229.995 51.986 82.706 94.021 170.66 125.875 261.685 2.051 5.938 4.098 11.874 6.145 17.807 2.084 6.126 4.133 12.257 6.146 18.392 4.029 12.269 7.906 24.558 11.645 36.858 7.479 24.603 14.377 49.262 20.705 73.95 12.654 49.377 23.01 98.875 31.107 148.281 16.209 98.813 23.354 197.251 22.189 293.631-1.146 96.387-10.604 190.702-27.146 281.427-16.533 90.735-40.146 177.868-69.314 260.198-29.154 82.348-63.854 159.887-102.375 231.859-38.518 71.991-80.867 138.409-125.287 198.985-44.432 60.586-90.938 115.33-137.893 164.382-46.961 49.064-94.363 92.447-140.76 130.644-46.404 38.201-91.805 71.226-134.959 99.77-43.16 28.551-84.086 52.625-121.738 73.002-37.66 20.375-72.053 37.062-102.328 50.776-30.281 13.708-56.443 24.466-77.801 32.833-21.357 8.365-37.904 14.357-49.076 18.337-5.598 1.966-9.84 3.455-12.682 4.454-2.85.982-4.297 1.482-4.297 1.482z" fill="#f7f473"/>
   <path d="m1038.979 2187.15c0 0 1.447-.5 4.297-1.482 2.842-.999 7.084-2.488 12.682-4.454 11.172-3.979 27.719-9.972 49.076-18.337 21.355-8.367 47.52-19.125 77.801-32.833 30.275-13.716 64.668-30.401 102.328-50.776 37.652-20.377 78.578-44.45 121.738-73.002 43.154-28.543 88.555-61.567 134.959-99.77 46.396-38.195 93.799-81.578 140.76-130.643 46.955-49.053 93.461-103.797 137.893-164.383 44.42-60.576 86.77-126.994 125.287-198.985 38.521-71.974 73.221-149.513 102.375-231.859 29.168-82.33 52.781-169.463 69.314-260.198 16.541-90.725 26-185.04 27.146-281.427 1.164-96.38-5.98-194.817-22.189-293.631-8.1-49.406-18.453-98.903-31.107-148.281-6.328-24.688-13.227-49.348-20.705-73.95-3.738-12.301-7.615-24.589-11.645-36.858-2.014-6.135-4.063-12.266-6.146-18.392-2.047-5.933-4.094-11.868-6.145-17.807-31.854-91.025-73.889-178.979-125.875-261.685-51.947-82.702-113.852-160.132-184.363-229.995-70.48-69.875-149.543-132.14-234.832-184.848-85.268-52.737-176.721-95.887-271.449-128.268-94.729-32.417-192.693-54.052-290.979-64.673-98.299-10.651-196.895-10.296-293.279.393-96.41 10.658-190.604 31.633-280.723 61.453-5.633 1.863-11.25 3.76-16.852 5.691-2.674.926-5.347 1.851-8.018 2.774-2.595.916-5.188 1.832-7.779 2.747-10.348 3.704-20.604 7.556-30.767 11.553-20.323 7.996-40.267 16.576-59.808 25.71-39.082 18.268-76.55 38.758-112.228 61.189-71.369 44.853-135.513 97.516-191.44 155.164-55.959 57.639-103.683 120.211-143.058 184.643-39.407 64.445-70.479 130.712-94.023 196.079-23.57 65.389-39.635 129.867-49.695 191.375-10.073 61.534-14.159 120.103-14.136 174.357.026 54.275 4.143 104.251 10.42 149.155 6.276 44.918 14.702 84.776 23.475 119.191 8.785 34.422 17.917 63.411 25.926 86.765.97 2.805 1.912 5.526 2.826 8.168.904 2.547 1.78 5.016 2.627 7.402 1.714 4.769 3.361 9.194 4.909 13.288 3.105 8.184 5.839 15.021 8.084 20.506 2.246 5.485 4.005 9.619 5.189 12.389 1.192 2.765 1.798 4.169 1.798 4.169l-140.982 69.71c0 0-.767-1.646-2.276-4.889-1.5-3.247-3.728-8.097-6.579-14.532-2.851-6.438-6.326-14.46-10.287-24.067-1.976-4.805-4.079-10.004-6.273-15.603-1.085-2.805-2.207-5.702-3.365-8.694-1.147-3.044-2.33-6.185-3.547-9.418-9.799-26.357-21.065-59.149-32.132-98.257-11.052-39.101-21.902-84.531-30.467-135.957-8.563-51.407-14.827-108.826-16.514-171.448-1.684-62.597 1.231-130.411 10.991-201.955 9.746-71.515 26.355-146.765 51.691-223.471 25.311-76.678 59.371-154.804 103.345-231.339 43.94-76.514 97.819-151.408 161.807-221.099 63.943-69.692 138.007-134.125 221.14-189.717 41.555-27.8 85.351-53.396 131.146-76.409 22.896-11.507 46.292-22.37 70.148-32.548 11.929-5.088 23.973-10.005 36.126-14.749 3.043-1.173 6.089-2.347 9.137-3.521 3.091-1.166 6.185-2.332 9.28-3.499 6.322-2.362 12.666-4.688 19.03-6.976 101.817-36.614 209.144-63.517 319.727-78.688 110.557-15.21 224.342-18.667 338.357-9.374 114.004 9.258 228.207 31.267 339.244 65.957 111.039 34.651 218.887 81.969 320.197 140.864 101.33 58.861 196.096 129.282 281.404 209.27 85.34 79.963 161.188 169.469 225.582 265.817 64.441 96.337 117.404 199.484 158.264 306.425l3.813 10.076 3.861 10.368c2.553 6.917 5.064 13.843 7.539 20.776 4.951 13.866 9.732 27.768 14.361 41.696 9.256 27.856 17.867 55.828 25.836 83.88 15.938 56.105 29.289 112.537 40.07 169.026 21.582 112.979 32.83 226.176 34.432 337.467 1.625 111.301-6.393 220.68-22.744 326.271-16.344 105.606-41.01 207.418-72.322 303.988-31.299 96.591-69.229 187.937-111.875 273.101-42.643 85.187-90.004 164.184-140.1 236.586-50.104 72.414-102.938 138.234-156.604 197.517-53.672 59.296-108.17 112.062-161.744 158.753-53.584 46.7-106.242 87.334-156.447 122.624-50.211 35.297-97.975 65.253-141.994 90.719-44.027 25.464-84.316 46.447-119.813 63.763-35.506 17.306-66.213 30.965-91.287 41.621-25.078 10.652-44.518 18.324-57.643 23.424-6.574 2.521-11.561 4.431-14.9 5.711-3.346 1.264-5.047 1.904-5.047 1.904z" fill="#b5b1aa"/>
   <path d="m1154.235 2475.88c0 0 1.699-.642 5.047-1.905 3.342-1.279 8.324-3.189 14.898-5.711 13.127-5.099 32.564-12.771 57.645-23.424 25.072-10.656 55.781-24.314 91.287-41.621 35.496-17.314 75.783-38.298 119.813-63.762 44.021-25.467 91.783-55.422 141.994-90.719 50.205-35.291 102.863-75.925 156.447-122.625 53.572-46.69 108.07-99.457 161.744-158.753 53.668-59.28 106.5-125.102 156.604-197.517 50.094-72.402 97.457-151.399 140.1-236.585 42.646-85.165 80.576-176.51 111.875-273.101 31.313-96.57 55.979-198.383 72.322-303.988 16.352-105.592 24.369-214.972 22.744-326.271-1.602-111.291-12.852-224.486-34.432-337.467-10.781-56.489-24.135-112.921-40.07-169.026-7.969-28.052-16.58-56.024-25.836-83.88-4.629-13.928-9.41-27.83-14.361-41.696-2.475-6.933-4.988-13.859-7.539-20.776l-3.861-10.368-3.813-10.076c-40.859-106.941-93.822-210.088-158.264-306.425-64.395-96.348-140.242-185.854-225.582-265.817-85.311-79.988-180.074-150.409-281.404-209.27-101.313-58.895-209.158-106.213-320.197-140.864-111.037-34.689-225.24-56.699-339.244-65.957-114.016-9.294-227.803-5.836-338.357 9.374-110.583 15.171-217.909 42.073-319.727 78.688-6.365 2.288-12.708 4.612-19.03 6.975-3.095 1.167-6.188 2.333-9.28 3.499-3.048 1.175-6.093 2.349-9.137 3.522-12.154 4.743-24.198 9.661-36.126 14.749-23.857 10.178-47.252 21.041-70.148 32.548-45.795 23.013-89.592 48.609-131.146 76.409-83.133 55.592-157.196 120.025-221.14 189.717-63.988 69.69-117.867 144.584-161.807 221.099-43.974 76.535-78.034 154.661-103.345 231.339-25.335 76.704-41.944 151.953-51.69 223.469-9.76 71.544-12.675 139.358-10.991 201.955 1.687 62.622 7.951 120.041 16.514 171.448 8.565 51.426 19.415 96.857 30.467 135.957 11.067 39.107 22.333 71.899 32.132 98.257 1.218 3.233 2.4 6.374 3.547 9.418 1.158 2.992 2.28 5.892 3.365 8.694 2.194 5.599 4.297 10.798 6.273 15.603 3.961 9.607 7.437 17.632 10.287 24.067 2.851 6.438 5.079 11.285 6.579 14.532 1.509 3.242 2.276 4.889 2.276 4.889l-140.977 69.707c0 0-.927-1.889-2.753-5.607-1.814-3.727-4.511-9.289-7.968-16.677-6.901-14.775-16.906-36.833-28.499-66.2-11.589-29.36-24.991-65.956-38.338-109.75-13.331-43.783-26.605-94.785-37.458-152.719-10.849-57.912-19.26-122.772-22.608-193.741-3.344-70.939-1.6-147.998 7.846-229.552 9.433-81.522 26.586-167.543 53.688-255.564 27.077-87.99 64.125-177.975 112.667-266.598 48.504-88.596 108.538-175.811 180.554-257.553 71.96-81.735 155.942-157.939 250.84-224.27 47.431-33.169 97.556-63.872 150.063-91.63 52.496-27.781 107.405-52.531 164.22-74.105 113.516-43.409 233.974-76.239 358.729-95.922 124.724-19.73 253.703-26.29 383.435-18.354 129.723 7.895 260.162 30.276 387.51 67.24 127.35 36.921 251.586 88.407 368.941 153.459 117.369 65.014 227.836 143.59 327.973 233.691 100.168 90.063 189.959 191.644 266.801 301.638 76.896 109.967 140.787 228.308 190.65 351.164 49.773 122.902 88.295 249.21 115.215 376.355 26.951 127.147 42.305 255.101 46.672 381.302 4.396 126.214-2.184 250.654-18.346 371.113-16.15 120.479-41.871 236.968-75.328 347.776-33.441 110.832-74.604 215.983-121.375 314.34-46.764 98.378-99.143 189.953-154.908 274.184-55.773 84.243-114.938 161.14-175.318 230.649-60.385 69.526-121.977 131.676-182.729 186.862-60.762 55.197-120.68 103.44-177.934 145.476-57.262 42.043-111.861 77.883-162.248 108.437-50.396 30.553-96.582 55.833-137.301 76.745-40.727 20.904-75.982 37.465-104.773 50.411-28.797 12.94-51.127 22.291-66.205 28.509-7.555 3.076-13.279 5.408-17.117 6.971-3.846 1.542-5.799 2.325-5.799 2.325z" fill="#b04b32"/>
   <path d="m1269.487 2764.597c0 0 1.953-.782 5.799-2.325 3.838-1.563 9.563-3.895 17.117-6.971 15.078-6.218 37.408-15.566 66.205-28.509 28.791-12.946 64.049-29.507 104.775-50.411 40.717-20.912 86.902-46.191 137.299-76.745 50.389-30.554 104.986-66.393 162.248-108.436 57.254-42.034 117.172-90.278 177.936-145.477 60.752-55.188 122.344-117.336 182.729-186.862 60.379-69.511 119.543-146.405 175.318-230.649 55.766-84.229 108.145-175.806 154.908-274.183 46.77-98.356 87.934-203.509 121.375-314.341 33.455-110.81 59.178-227.299 75.326-347.775 16.162-120.459 22.742-244.9 18.348-371.114-4.367-126.201-19.723-254.155-46.674-381.302-26.918-127.146-65.439-253.454-115.215-376.355-49.863-122.855-113.754-241.196-190.65-351.164-76.842-109.995-166.631-211.574-266.799-301.638-100.139-90.101-210.604-168.677-327.975-233.691-117.355-65.053-241.592-116.538-368.941-153.459-127.346-36.964-257.787-59.345-387.51-67.24-129.732-7.937-258.711-1.376-383.434 18.354-124.756 19.683-245.212 52.513-358.729 95.922-56.815 21.574-111.724 46.324-164.22 74.105-52.508 27.758-102.633 58.461-150.063 91.63-94.898 66.331-178.88 142.535-250.84 224.27-72.017 81.743-132.05 168.957-180.554 257.553-48.541 88.624-85.589 178.608-112.667 266.598-27.102 88.021-44.255 174.042-53.688 255.564-9.446 81.554-11.19 158.612-7.846 229.552 3.348 70.968 11.759 135.829 22.608 193.741 10.854 57.933 24.128 108.935 37.458 152.719 13.348 43.793 26.75 80.389 38.338 109.749 11.593 29.368 21.598 51.425 28.499 66.201 3.457 7.387 6.153 12.949 7.968 16.676 1.826 3.72 2.753 5.607 2.753 5.607l-140.977 69.708c0 0-1.088-2.132-3.231-6.328-2.13-4.203-5.295-10.482-9.357-18.819-4.061-8.338-9.021-18.734-14.692-31.189-2.831-6.229-5.846-12.971-9.001-20.23-1.562-3.638-3.176-7.396-4.842-11.276-1.613-3.854-3.277-7.827-4.991-11.921-13.379-32.365-28.915-72.764-44.545-121.242-15.608-48.469-31.308-105.042-44.45-169.481-13.135-64.415-23.693-136.722-28.702-216.034-5.004-79.282-4.432-165.584 4.702-257.148 9.119-91.529 26.817-188.321 55.685-287.657 28.843-99.301 68.879-201.145 121.988-301.857 53.068-100.678 119.256-200.213 199.302-294.008 79.976-93.778 173.876-181.752 280.54-258.824 53.308-38.537 109.762-74.347 168.981-106.85 29.608-16.253 59.905-31.681 90.829-46.222 15.462-7.27 31.08-14.318 46.846-21.14 3.948-1.689 7.899-3.38 11.853-5.071 3.932-1.647 7.866-3.296 11.803-4.946 7.763-3.224 15.559-6.404 23.386-9.541 125.215-50.203 258.803-88.96 397.731-113.156 138.891-24.25 283.063-33.913 428.512-27.333 145.439 6.532 292.119 29.287 435.773 68.523 143.66 39.192 284.287 94.845 417.688 166.056 133.41 71.166 259.578 157.898 374.545 258.112 114.994 100.164 218.729 213.818 308.016 337.458 44.658 61.806 85.725 126.08 122.955 192.26 37.236 66.18 70.631 134.264 100.084 203.643l5.459 12.985 5.273 12.734c3.488 8.5 6.93 17.015 10.326 25.545 6.793 17.06 13.387 34.187 19.795 51.369 12.811 34.365 24.846 68.961 36.096 103.741 22.5 69.561 41.848 139.859 57.998 210.514 32.322 141.313 51.779 284.025 58.912 425.136 7.168 141.128 2.029 280.633-13.943 415.959-15.961 135.349-42.736 266.516-78.338 391.564-35.584 125.074-79.979 244.031-130.873 355.578-50.887 111.57-108.279 215.725-169.719 311.781-61.447 96.071-126.939 184.045-194.031 263.782-67.096 79.759-135.781 151.29-203.713 214.972-67.939 63.695-135.117 119.551-199.42 168.33-64.313 48.789-125.748 90.51-182.502 126.151-56.766 35.643-108.848 65.22-154.785 89.729-45.951 24.502-85.754 43.964-118.264 59.199-32.516 15.229-57.736 26.258-74.77 33.595-8.531 3.632-15 6.385-19.334 8.229-4.346 1.822-6.551 2.747-6.551 2.747z" fill="#fff"/>
   <path d="m1384.741 3053.314c0 0 2.205-.925 6.551-2.746 4.334-1.845 10.803-4.598 19.334-8.229 17.031-7.337 42.252-18.365 74.77-33.595 32.51-15.235 72.313-34.697 118.264-59.199 45.938-24.511 98.02-54.088 154.785-89.729 56.754-35.644 118.189-77.363 182.502-126.152 64.303-48.779 131.479-104.635 199.42-168.329 67.932-63.683 136.615-135.214 203.713-214.972 67.092-79.738 132.584-167.711 194.029-263.783 61.439-96.058 118.834-200.21 169.721-311.781 50.895-111.547 95.289-230.504 130.873-355.578 35.602-125.05 62.377-256.217 78.338-391.563 15.973-135.327 21.111-274.831 13.943-415.959-7.133-141.111-26.59-283.823-58.914-425.136-16.148-70.655-35.496-140.954-57.996-210.514-11.252-34.78-23.285-69.376-36.098-103.741-6.406-17.182-13-34.309-19.793-51.369-3.396-8.531-6.838-17.046-10.328-25.545l-5.271-12.734-5.459-12.985c-29.453-69.379-62.848-137.463-100.084-203.643-37.23-66.18-78.297-130.454-122.955-192.26-89.287-123.64-193.021-237.294-308.018-337.458-114.967-100.214-241.133-186.946-374.543-258.112-133.4-71.211-274.027-126.864-417.688-166.056-143.656-39.237-290.334-61.991-435.773-68.523-145.449-6.579-289.621 3.083-428.513 27.333-138.928 24.196-272.516 62.954-397.731 113.156-7.828 3.136-15.623 6.316-23.386 9.541-3.937 1.65-7.872 3.299-11.803 4.946-3.954 1.691-7.905 3.382-11.853 5.071-15.766 6.822-31.384 13.87-46.846 21.14-30.924 14.541-61.22 29.969-90.829 46.222-59.22 32.503-115.673 68.313-168.981 106.85-106.664 77.071-200.564 165.045-280.54 258.824-80.046 93.795-146.234 193.33-199.302 294.008-53.108 100.712-93.145 202.557-121.988 301.857-28.868 99.336-46.566 196.128-55.685 287.657-9.133 91.564-9.706 177.867-4.702 257.148 5.008 79.313 15.566 151.619 28.702 216.034 13.142 64.44 28.841 121.014 44.45 169.481 15.63 48.479 31.166 88.878 44.545 121.242 1.714 4.095 3.377 8.067 4.991 11.921 1.667 3.882 3.281 7.641 4.842 11.276 3.155 7.261 6.17 14.002 9.001 20.231 5.671 12.455 10.631 22.852 14.692 31.188 4.062 8.337 7.227 14.616 9.357 18.819 2.143 4.197 3.231 6.329 3.231 6.329l-140.982 69.71c0 0-1.249-2.375-3.708-7.049-2.445-4.683-6.079-11.677-10.746-20.964-4.666-9.289-10.368-20.872-16.895-34.752-3.258-6.939-6.729-14.452-10.364-22.545-1.8-4.053-3.661-8.241-5.581-12.566-1.847-4.258-3.751-8.649-5.712-13.173-15.169-35.369-32.84-79.57-50.751-132.735-17.887-53.152-36.011-115.298-51.441-186.245-15.421-70.92-28.126-150.668-34.796-238.328-6.664-87.624-7.263-183.171 1.557-284.746 8.806-101.536 27.048-209.1 57.683-319.751 30.609-110.613 73.634-224.316 131.31-337.118 57.633-112.761 129.976-224.617 218.05-330.464 44.017-52.915 91.941-104.301 143.701-153.443 51.756-49.139 107.348-96.032 166.541-139.937 59.185-43.906 121.967-84.822 187.899-122.071 32.964-18.625 66.712-36.335 101.169-53.059 17.229-8.361 34.634-16.475 52.207-24.336 4.4-1.947 8.804-3.896 13.211-5.846 4.352-1.889 8.707-3.778 13.065-5.671 8.483-3.654 17.005-7.262 25.564-10.823 136.915-56.997 283.634-101.682 436.734-130.391 153.061-28.771 312.424-41.536 473.592-36.313 161.158 5.169 324.074 28.296 484.041 69.807 159.971 41.462 316.988 101.282 466.434 178.651 149.451 77.319 291.318 172.208 421.117 282.535 64.898 55.149 126.789 114.124 185.15 176.503 58.365 62.375 113.203 128.149 164.082 196.777 50.883 68.624 97.799 140.101 140.445 213.773 42.65 73.67 81.023 149.535 114.982 226.87l6.281 14.439 5.98 13.918c3.957 9.29 7.863 18.6 11.721 27.93 7.715 18.657 15.215 37.396 22.51 56.206 14.59 37.619 28.336 75.528 41.229 113.672 25.783 76.289 48.127 153.521 66.961 231.259 37.695 155.48 61.256 312.95 71.154 468.973 9.938 156.043 6.238 310.609-9.545 460.805-15.768 150.22-43.598 296.064-81.344 435.354-37.729 139.316-85.354 272.081-140.373 396.819-55.01 124.764-117.418 241.497-184.529 349.38-67.117 107.9-138.939 206.95-212.744 296.919-73.809 89.989-149.588 170.903-224.697 243.081-75.119 72.193-149.559 135.659-220.91 191.184-71.359 55.535-139.635 103.14-202.754 143.868-63.135 40.731-121.113 74.606-172.273 102.716-51.172 28.101-95.521 50.463-131.75 67.987-36.236 17.519-64.35 30.225-83.332 38.683-9.494 4.226-16.713 7.377-21.553 9.486-4.844 2.102-7.305 3.168-7.305 3.168z" fill="#489562"/>
   <path d="m1499.997 3342.045c0 0 2.459-1.066 7.303-3.168 4.84-2.109 12.059-5.262 21.553-9.487 18.984-8.458 47.098-21.164 83.332-38.682 36.229-17.524 80.578-39.888 131.75-67.987 51.16-28.108 109.141-61.983 172.273-102.716 63.119-40.729 131.395-88.333 202.756-143.869 71.352-55.522 145.791-118.989 220.908-191.183 75.109-72.178 150.891-153.092 224.697-243.081 73.807-89.97 145.627-189.019 212.744-296.919 67.111-107.883 129.521-224.616 184.529-349.38 55.02-124.738 102.646-257.503 140.373-396.819 37.746-139.289 65.576-285.135 81.344-435.354 15.785-150.194 19.484-304.763 9.545-460.805-9.898-156.021-33.459-313.492-71.154-468.973-18.834-77.738-41.178-154.97-66.961-231.259-12.891-38.144-26.639-76.053-41.229-113.672-7.295-18.809-14.795-37.549-22.51-56.206-3.855-9.33-7.764-18.64-11.721-27.93l-5.979-13.918-6.283-14.438c-33.959-77.334-72.332-153.199-114.982-226.87-42.646-73.672-89.563-145.149-140.445-213.773-50.877-68.627-105.717-134.4-164.08-196.776-58.363-62.379-120.252-121.354-185.152-176.503-129.797-110.328-271.666-205.216-421.117-282.535-149.443-77.369-306.463-137.189-466.432-178.651-159.967-41.51-322.885-64.638-484.043-69.807-161.166-5.223-320.531 7.543-473.591 36.313-153.101 28.709-299.82 73.396-436.734 130.391-8.559 3.561-17.081 7.169-25.564 10.824-4.358 1.893-8.713 3.781-13.065 5.67-4.407 1.95-8.811 3.898-13.211 5.846-17.572 7.861-34.978 15.976-52.207 24.336-34.457 16.723-68.205 34.433-101.169 53.059-65.932 37.249-128.714 78.165-187.899 122.071-59.193 43.903-114.785 90.796-166.541 139.936-51.759 49.142-99.684 100.528-143.701 153.443-88.075 105.847-160.417 217.703-218.05 330.464-57.676 112.802-100.701 226.505-131.31 337.118-30.634 110.651-48.877 218.215-57.683 319.751-8.819 101.575-8.221 197.122-1.557 284.746 6.669 87.66 19.375 167.408 34.796 238.328 15.43 70.947 33.555 133.093 51.441 186.245 17.911 53.165 35.583 97.365 50.751 132.734 1.961 4.523 3.866 8.915 5.712 13.174 1.92 4.324 3.781 8.515 5.581 12.566 3.636 8.092 7.106 15.604 10.364 22.545 6.527 13.879 12.229 25.462 16.895 34.751 4.667 9.288 8.301 16.282 10.746 20.964 2.459 4.674 3.708 7.049 3.708 7.049l-140.977 69.707c0 0-1.41-2.615-4.186-7.769-2.761-5.16-6.863-12.868-12.136-23.106-5.271-10.239-11.715-23.01-19.097-38.313-3.686-7.653-7.612-15.938-11.728-24.859-2.038-4.47-4.145-9.09-6.32-13.857-2.08-4.663-4.225-9.473-6.434-14.425-16.959-38.373-36.766-86.377-56.958-144.229-20.166-57.837-40.714-125.554-58.433-203.009-17.708-77.424-32.561-164.615-40.89-260.62-8.324-95.966-10.094-200.758-1.587-312.343 8.492-111.543 27.279-229.878 59.68-351.845 32.375-121.924 78.388-247.487 140.63-372.377 62.198-124.842 140.695-249.02 236.798-366.919 48.029-58.938 100.432-116.276 157.144-171.208 56.707-54.93 117.727-107.452 182.798-156.724 65.062-49.274 134.172-95.297 206.817-137.291 36.32-20.998 73.519-40.991 111.509-59.896 18.996-9.452 38.188-18.632 57.566-27.532 4.853-2.205 9.709-4.412 14.569-6.62 4.772-2.13 9.548-4.262 14.328-6.396 9.204-4.084 18.451-8.121 27.742-12.105 148.613-63.791 308.464-114.404 475.737-147.625 167.228-33.291 341.787-49.159 518.669-45.294 176.877 3.806 356.031 27.307 532.307 71.09 176.279 43.732 349.688 107.72 515.178 191.247 165.49 83.472 323.061 186.516 467.688 306.957 72.313 60.203 141.395 124.716 206.654 193.083 65.258 68.362 126.693 140.571 183.795 216.018 57.107 75.442 109.875 154.12 157.936 235.284 48.064 81.162 91.416 164.808 129.881 250.097l7.107 15.894 6.684 15.101c4.428 10.081 8.799 20.186 13.113 30.314 8.637 20.254 17.043 40.606 25.229 61.042 16.365 40.873 31.824 82.095 46.357 123.603 29.064 83.016 54.404 167.182 75.924 252.002 43.066 169.647 70.73 341.875 83.396 512.808 12.709 170.955 10.451 340.585-5.146 505.646-15.574 165.092-44.459 325.614-84.35 479.144-39.871 153.559-90.73 300.129-149.873 438.06-59.133 137.956-126.557 267.269-199.34 386.979-72.789 119.729-150.939 229.854-231.457 330.052-80.521 100.221-163.395 190.519-245.682 271.19-82.299 80.69-163.996 151.768-242.396 214.035-78.412 62.282-153.523 115.769-223.01 161.586-69.502 45.82-133.379 83.992-189.76 115.699-56.395 31.698-105.293 56.963-145.236 76.775-39.955 19.807-70.959 34.19-91.896 43.769-10.471 4.786-18.432 8.356-23.77 10.745-5.344 2.381-8.057 3.59-8.057 3.59z" fill="#2e6a93"/>
   <path d="m-136.374 605.067c0 0 .451 1.158 1.34 3.439.895 2.28 2.241 5.677 4.073 10.135 3.676 8.91 9.271 22.079 17.446 38.873 8.189 16.783 18.975 37.195 33.366 60.33 14.396 23.121 32.428 48.972 55.249 76.236 22.815 27.243 50.461 55.905 83.891 84.075 33.404 28.146 72.627 55.794 117.932 80.393 45.266 24.589 96.624 46.099 153.295 61.629 56.638 15.533 118.562 25.055 184.079 25.741 65.499.696 134.569-7.454 205.03-26.903 4.404-1.214 8.813-2.474 13.227-3.775 4.277-1.293 8.563-2.588 12.857-3.887 7.787-2.373 15.549-4.914 23.271-7.643 15.443-5.463 30.752-11.642 45.861-18.596 30.221-13.896 59.701-30.849 87.891-51.024 28.184-20.164 55.078-43.548 79.951-70.047 24.867-26.489 47.715-56.083 67.711-88.376 20.012-32.279 37.166-67.242 50.764-104.207 13.59-36.963 23.611-75.918 29.482-116.081 5.873-40.163 7.613-81.523 4.799-123.325-2.801-41.804-10.16-84.046-22.299-126.048l-2.334-7.872-2.238-7.334c-1.416-4.615-2.916-9.202-4.486-13.765-3.143-9.127-6.59-18.151-10.338-27.064-7.5-17.824-16.221-35.205-26.168-52.029-19.885-33.638-44.738-65.092-74.125-93.066-29.358-27.976-63.223-52.437-100.377-72.045-37.143-19.621-77.531-34.373-119.584-43.313-42.057-8.967-85.746-12.117-129.635-9.033-21.947 1.542-43.951 4.64-65.86 9.314-10.953 2.346-21.887 5.067-32.777 8.201-2.722.783-5.444 1.585-8.16 2.421l-7.377 2.266c-4.766 1.506-9.494 3.112-14.181 4.82-37.489 13.622-72.592 33.711-103.77 59.894-31.158 26.134-58.287 58.362-79.34 94.85-21.087 36.458-36.045 77.068-43.652 119.279-7.64 42.227-7.947 86-.597 129.26 1.834 10.818 4.144 21.609 6.929 32.345 1.391 5.369 2.901 10.725 4.531 16.063l1.135 3.729 1.102 3.515c.749 2.336 1.527 4.66 2.335 6.972 6.46 18.494 14.829 36.215 25.053 52.948 20.402 33.447 48.459 62.957 82.043 85.75 33.531 22.827 72.389 38.787 112.959 46.167 40.598 7.438 82.802 6.356 123.878-3.434 10.131-2.393 21.047-5.629 29.359-8.459 8.836-3.04 17.445-6.615 25.797-10.721 16.697-8.207 32.375-18.549 46.643-30.837 14.264-12.28 27.107-26.497 38.074-42.217 10.971-15.714 20.064-32.911 26.945-51.004 6.885-18.095 11.561-37.07 13.871-56.354 2.314-19.289 2.27-38.883-.16-58.327-1.209-9.725-3.02-19.412-5.41-29.021-.6-2.401-1.234-4.799-1.906-7.19l-1.031-3.583-1.064-3.508c-1.268-4.202-2.68-8.343-4.24-12.417-6.232-16.291-14.813-31.561-25.563-45.385-10.738-13.818-23.645-26.167-38.178-36.493-14.525-10.332-30.66-18.625-47.65-24.497-16.992-5.879-34.824-9.341-52.805-10.245-17.986-.913-36.119.719-53.898 4.863-4.445 1.036-8.869 2.225-13.265 3.572l-2.995.924c-.966.302-1.924.622-2.882.942-1.911.651-3.806 1.339-5.684 2.063-7.508 2.903-14.734 6.419-21.622 10.537-13.772 8.221-26.206 18.862-36.651 31.403-10.448 12.53-18.871 26.932-24.78 42.313-5.923 15.382-9.313 31.72-10.04 48.169-.736 16.458 1.2 33.029 5.708 49.135.286 1.006.57 2.014.877 3.016l.856 2.813c.552 1.764 1.146 3.507 1.777 5.233 1.265 3.452 2.688 6.832 4.269 10.131 3.158 6.599 6.947 12.879 11.329 18.758 8.748 11.758 19.883 21.922 32.588 29.734 12.695 7.826 26.903 13.292 41.563 16.029 14.668 2.753 29.766 2.804 44.512.173 3.689-.65 7.354-1.483 10.996-2.459.908-.249 1.818-.503 2.725-.771l2.621-.794c1.596-.491 3.172-1.021 4.73-1.593 6.23-2.284 12.156-5.229 17.719-8.771 11.109-7.086 20.729-16.681 28.016-27.92 7.305-11.227 12.242-24.022 14.438-37.191 2.217-13.181 1.707-26.707-1.424-39.754-.391-1.633-.822-3.258-1.293-4.874l-.709-2.354c-.217-.714-.451-1.418-.688-2.123-.961-2.808-2.072-5.548-3.352-8.198-2.545-5.307-5.725-10.282-9.467-14.83-7.467-9.106-17.236-16.451-28.107-21.267-10.871-4.832-22.764-7.127-34.514-6.765-5.881.169-11.734 1.005-17.469 2.452-1.434.361-2.859.763-4.277 1.202-1.277.386-2.504.797-3.732 1.249-2.443.91-4.815 1.968-7.101 3.18-9.141 4.815-16.948 12.108-22.534 20.891-5.606 8.77-8.941 18.918-9.729 29.123-.401 5.106-.186 10.235.625 15.273.405 2.52.961 5.017 1.655 7.481.173.611.361 1.241.544 1.832l.521 1.621c.368 1.069.767 2.126 1.205 3.159 3.473 8.276 9.298 15.405 16.592 20.558 7.278 5.168 15.904 8.292 24.566 9.109 4.334.419 8.686.28 12.943-.385 2.131-.33 4.236-.799 6.314-1.384l1.531-.458c.461-.138.914-.289 1.365-.443.9-.313 1.787-.656 2.654-1.028 6.941-2.977 12.818-7.993 16.928-14.16 4.131-6.153 6.439-13.342 6.852-20.412.213-3.541-.033-7.063-.695-10.482-.324-1.692-.777-3.435-1.287-5.007-.459-1.478-1.027-2.894-1.682-4.253-2.609-5.441-6.789-9.903-11.674-12.97-4.908-3.001-10.354-4.889-15.744-5.324-2.701-.267-5.346-.062-7.965.188-1.285.12-2.668.344-3.828.593l-.33.073c-.139.027-.211.045-.172.038v-.001l-.002-.001h.002l.002-.001c-.004.001 0 0-.002 0l-.01.521c-.002 1.078.096 2.27.258 3.486.324 2.443.898 4.99 1.551 7.462.656 2.479 1.254 4.969 1.959 7.327 1.361 4.748 2.908 9.05 3.965 13.097 2.287 8.019 4.164 14.17 5.039 18.415.791 4.3.965 6.484.965 6.484s-.361-2.114-1.5-6.221c-1.189-4.071-3.432-9.98-6.273-17.704-1.359-3.89-3.125-8.093-4.791-12.764-.85-2.323-1.633-4.779-2.443-7.275-.807-2.492-1.553-5.085-2.074-7.669-.26-1.289-.465-2.576-.57-3.807-.027-.328-.047-.582-.068-.73l-.061-.393c-.035-.264-.064-.529-.074-.801-.049-1.063.188-2.275 1.063-3.079.215-.196.453-.368.713-.51.129-.071.262-.137.398-.193.043-.023.16-.063.324-.107l.428-.129c1.336-.377 2.838-.713 4.295-.946 2.947-.472 5.98-.796 9.098-.643 6.223.232 12.662 2.076 18.543 5.433 5.857 3.392 11.037 8.498 14.428 14.915.848 1.603 1.596 3.279 2.215 5.028.654 1.813 1.227 3.768 1.668 5.71.893 3.908 1.318 7.979 1.211 12.103-.199 8.237-2.59 16.731-7.201 24.173-4.582 7.447-11.371 13.744-19.613 17.667-1.031.49-2.082.947-3.154 1.366-.537.207-1.078.411-1.625.6l-1.748.586c-2.363.75-4.773 1.369-7.225 1.833-4.9.936-9.955 1.271-15.033.96-10.144-.606-20.398-3.894-29.253-9.703-8.866-5.784-16.232-14.069-20.841-23.938-.581-1.23-1.112-2.49-1.608-3.769-.246-.641-.483-1.285-.708-1.937-.237-.682-.476-1.392-.698-2.091-.892-2.813-1.631-5.675-2.199-8.58-1.137-5.808-1.598-11.778-1.337-17.769.506-11.974 3.981-24.052 10.249-34.7 6.241-10.659 15.257-19.805 26.124-26.099 2.713-1.579 5.544-2.979 8.468-4.203 1.468-.609 2.944-1.172 4.467-1.694 1.614-.561 3.244-1.077 4.886-1.551 6.568-1.894 13.346-3.102 20.207-3.538 13.715-.901 27.799 1.281 40.865 6.527 13.063 5.229 25.049 13.52 34.5 24.161 4.732 5.313 8.838 11.2 12.195 17.534 1.686 3.163 3.174 6.445 4.48 9.816 1.252 3.267 2.527 7.146 3.547 10.852 4.137 14.989 5.314 30.82 3.26 46.426-2.031 15.596-7.301 30.938-15.504 44.646-8.184 13.716-19.285 25.734-32.453 34.896-6.586 4.58-13.674 8.468-21.162 11.563-1.873.772-3.77 1.499-5.688 2.176l-3.039 1.038c-1.037.344-2.078.673-3.121.995-4.176 1.271-8.398 2.383-12.666 3.287-17.059 3.65-34.793 4.243-52.208 1.617-17.406-2.607-34.467-8.446-49.956-17.212-15.496-8.748-29.372-20.426-40.566-34.28-5.604-6.925-10.537-14.396-14.724-22.297-2.094-3.951-4.002-8.011-5.719-12.165-.858-2.077-1.669-4.18-2.431-6.304l-1.144-3.309c-.393-1.146-.762-2.3-1.131-3.453-5.851-18.471-8.817-37.783-8.641-57.17.165-19.378 3.46-38.824 9.813-57.328 6.34-18.502 15.718-36.048 27.692-51.589 11.969-15.547 26.51-29.065 42.915-39.783 8.2-5.366 16.867-10.033 25.907-13.96 2.262-.979 4.544-1.916 6.849-2.807 1.154-.44 2.311-.877 3.476-1.296l3.565-1.253c5.031-1.728 10.115-3.282 15.24-4.661 20.498-5.522 41.689-8.205 62.904-7.886 21.209.308 42.438 3.623 62.848 9.856 20.41 6.226 39.992 15.37 57.871 27.087 17.887 11.709 34.055 25.984 47.783 42.261 13.738 16.276 25.029 34.541 33.482 54.182 2.115 4.911 4.053 9.909 5.813 14.983 1.875 5.358 3.641 10.918 5.217 16.434 3.156 11.068 5.662 22.297 7.477 33.626 3.637 22.652 4.527 45.71 2.615 68.579-1.904 22.866-6.611 45.54-13.998 67.339-7.379 21.798-17.441 42.71-29.875 62.05-12.428 19.345-27.23 37.101-43.949 52.696-16.719 15.602-35.352 29.028-55.395 39.926-10.023 5.45-20.4 10.271-31.072 14.44-10.324 4.025-22.525 8.029-34.283 11.255-47.396 13.035-97.068 16.175-145.412 9.114-48.323-6.988-95.217-24.183-136.46-50.01-41.289-25.775-76.768-60.104-103.409-100.008-13.341-19.951-24.519-41.279-33.375-63.628-1.107-2.794-2.179-5.604-3.215-8.428l-1.526-4.248-1.524-4.404c-2.097-6.12-4.061-12.275-5.889-18.459-3.663-12.367-6.79-24.852-9.373-37.419-10.354-50.256-11.905-101.884-4.68-152.188 7.184-50.294 23.131-99.211 46.694-143.76 23.524-44.571 54.632-84.698 91.246-118 36.612-33.349 78.667-59.835 123.986-78.449 5.665-2.333 11.382-4.542 17.147-6.629l4.332-1.546 4.486-1.549c3.115-1.074 6.24-2.112 9.368-3.127 12.513-4.064 25.125-7.668 37.802-10.843 25.357-6.333 50.998-10.872 76.714-13.597 51.428-5.455 103.176-3.632 153.396 5.17 50.221 8.771 98.891 24.503 144.139 46.267 45.262 21.75 87.074 49.524 123.916 81.964 36.869 32.43 68.738 69.507 94.787 109.709 13.031 20.103 24.619 40.992 34.732 62.493 5.057 10.751 9.746 21.655 14.064 32.695 2.16 5.519 4.23 11.071 6.205 16.657l3.004 8.663c1.025 3.01 2.027 6.024 3.018 9.04 15.744 48.267 26.111 97.377 31.146 146.387 5.053 49.007 4.781 97.902-.441 145.685-5.215 47.783-15.393 94.44-29.93 139.019-14.541 44.58-33.432 87.071-55.934 126.657-22.484 39.602-48.578 76.285-77.395 109.506-28.818 33.23-60.363 62.986-93.777 89.01-33.416 26.037-68.707 48.334-105.105 66.933-18.201 9.307-36.689 17.68-55.369 25.17-9.344 3.741-18.738 7.255-28.17 10.559-2.449.849-4.896 1.693-7.34 2.538-2.539.856-5.072 1.712-7.605 2.566-5.068 1.686-10.139 3.32-15.207 4.906-81.096 25.396-161.84 37.923-239.086 39.865-77.278 1.971-151.021-6.593-218.945-22.559-67.968-15.96-130.105-39.272-185.342-66.627-55.28-27.362-103.677-58.735-145.304-91.122-41.656-32.409-76.577-65.822-105.679-97.864-29.112-32.064-52.449-62.758-71.239-90.345-18.787-27.605-33.064-52.109-43.972-72.299-10.894-20.203-18.44-36.098-23.409-46.854-2.478-5.383-4.305-9.486-5.52-12.242-1.208-2.757-1.822-4.157-1.822-4.157z" fill="#f7f473"/>
   <path d="m-277.351 674.774c0 0 .614 1.4 1.822 4.157 1.215 2.756 3.042 6.859 5.52 12.242 4.969 10.757 12.516 26.65 23.409 46.854 10.908 20.188 25.185 44.692 43.972 72.299 18.79 27.587 42.127 58.279 71.239 90.345 29.102 32.042 64.023 65.455 105.679 97.864 41.627 32.387 90.024 63.76 145.304 91.122 55.236 27.354 117.374 50.667 185.342 66.627 67.924 15.966 141.667 24.527 218.945 22.559 77.247-1.943 157.991-14.47 239.086-39.866 5.068-1.585 10.139-3.221 15.207-4.905 2.533-.854 5.066-1.71 7.605-2.566 2.443-.845 4.891-1.689 7.34-2.538 9.432-3.304 18.826-6.817 28.17-10.559 18.682-7.49 37.168-15.863 55.369-25.17 36.398-18.599 71.689-40.896 105.105-66.933 33.414-26.022 64.959-55.778 93.777-89.01 28.814-33.221 54.908-69.904 77.395-109.506 22.502-39.586 41.393-82.077 55.934-126.657 14.537-44.577 24.715-91.235 29.93-139.019 5.225-47.781 5.494-96.679.441-145.685-5.035-49.01-15.402-98.121-31.146-146.387-.988-3.015-1.992-6.029-3.018-9.04l-3.004-8.663c-1.975-5.586-4.045-11.138-6.205-16.657-4.318-11.041-9.01-21.944-14.064-32.695-10.113-21.501-21.701-42.39-34.732-62.493-26.049-40.203-57.918-77.28-94.787-109.709-36.842-32.44-78.654-60.213-123.916-81.964-45.248-21.761-93.918-37.493-144.139-46.264-50.223-8.802-101.969-10.625-153.396-5.17-25.717 2.725-51.356 7.264-76.714 13.597-12.677 3.174-25.289 6.779-37.802 10.843-3.128 1.016-6.252 2.054-9.368 3.127l-4.486 1.549-4.332 1.546c-5.766 2.087-11.482 4.297-17.147 6.629-45.319 18.614-87.374 45.101-123.986 78.449-36.614 33.302-67.722 73.429-91.246 118.003-23.563 44.549-39.51 93.466-46.694 143.76-7.226 50.304-5.674 101.933 4.68 152.188 2.583 12.566 5.71 25.052 9.373 37.419 1.829 6.184 3.792 12.339 5.889 18.459l1.524 4.404 1.526 4.247c1.036 2.825 2.107 5.635 3.215 8.429 8.855 22.349 20.034 43.677 33.375 63.628 26.641 39.903 62.121 74.23 103.409 100.008 41.244 25.827 88.138 43.021 136.46 50.01 48.345 7.061 98.015 3.92 145.412-9.114 11.758-3.226 23.959-7.229 34.283-11.256 10.672-4.17 21.049-8.989 31.072-14.439 20.043-10.896 38.676-24.324 55.395-39.926 16.719-15.597 31.521-33.353 43.949-52.696 12.434-19.34 22.496-40.252 29.875-62.05 7.387-21.799 12.094-44.474 13.998-67.339 1.912-22.869 1.021-45.927-2.615-68.579-1.813-11.329-4.318-22.558-7.477-33.626-1.576-5.516-3.342-11.074-5.217-16.434-1.76-5.076-3.697-10.074-5.813-14.983-8.453-19.643-19.744-37.906-33.482-54.182-13.729-16.277-29.896-30.551-47.781-42.261-17.881-11.717-37.463-20.861-57.873-27.087-20.41-6.233-41.639-9.549-62.848-9.856-21.215-.319-42.406 2.363-62.903 7.886-5.125 1.379-10.209 2.933-15.241 4.661l-3.565 1.253c-1.165.418-2.32.855-3.476 1.296-2.305.892-4.587 1.828-6.849 2.807-9.04 3.927-17.706 8.595-25.907 13.96-16.404 10.718-30.946 24.236-42.915 39.783-11.975 15.541-21.353 33.086-27.692 51.589-6.354 18.504-9.648 37.95-9.813 57.328-.178 19.387 2.789 38.699 8.64 57.17.369 1.153.738 2.308 1.131 3.453l1.145 3.309c.761 2.124 1.571 4.227 2.43 6.304 1.717 4.154 3.625 8.214 5.719 12.165 4.188 7.901 9.12 15.371 14.724 22.297 11.194 13.854 25.07 25.531 40.566 34.28 15.489 8.766 32.55 14.604 49.956 17.212 17.413 2.625 35.149 2.033 52.208-1.617 4.268-.904 8.49-2.016 12.666-3.287 1.043-.322 2.084-.651 3.121-.995l3.039-1.038c1.92-.677 3.814-1.402 5.688-2.176 7.488-3.096 14.576-6.981 21.162-11.563 13.168-9.161 24.271-21.181 32.453-34.896 8.203-13.706 13.473-29.05 15.504-44.646 2.057-15.604.877-31.437-3.26-46.426-1.02-3.704-2.295-7.585-3.547-10.852-1.309-3.371-2.795-6.653-4.48-9.816-3.357-6.334-7.463-12.222-12.195-17.534-9.451-10.642-21.438-18.933-34.5-24.161-13.066-5.248-27.15-7.429-40.865-6.527-6.861.438-13.639 1.646-20.207 3.538-1.642.474-3.271.99-4.886 1.551-1.522.522-2.999 1.085-4.467 1.693-2.924 1.225-5.754 2.624-8.468 4.204-10.866 6.292-19.883 15.438-26.124 26.099-6.268 10.648-9.743 22.728-10.249 34.7-.261 5.989.2 11.961 1.337 17.769.568 2.905 1.308 5.769 2.199 8.58.223.699.461 1.409.698 2.091.226.65.463 1.296.708 1.937.496 1.277 1.029 2.536 1.608 3.769 4.607 9.868 11.975 18.153 20.841 23.938 8.854 5.811 19.109 9.097 29.253 9.702 5.078.313 10.133-.023 15.033-.959 2.449-.464 4.861-1.083 7.225-1.833l1.748-.586c.547-.188 1.088-.393 1.625-.6 1.072-.419 2.123-.876 3.154-1.366 8.242-3.923 15.031-10.22 19.613-17.667 4.611-7.44 7.002-15.936 7.201-24.173.107-4.124-.316-8.193-1.211-12.104-.441-1.941-1.014-3.896-1.668-5.71-.619-1.749-1.367-3.426-2.215-5.027-3.391-6.417-8.57-11.523-14.428-14.915-5.881-3.355-12.32-5.199-18.543-5.434-3.115-.152-6.15.172-9.098.644-1.457.232-2.959.569-4.295.946l-.428.129c-.164.045-.281.084-.324.107-.137.058-.27.122-.398.193-.26.142-.498.313-.711.51-.877.803-1.111 2.018-1.064 3.079.012.271.039.537.074.801l.061.393c.021.148.041.402.068.73.105 1.229.311 2.518.57 3.807.521 2.584 1.27 5.177 2.074 7.669.811 2.496 1.596 4.951 2.443 7.275 1.666 4.671 3.432 8.874 4.791 12.764 2.842 7.724 5.084 13.633 6.273 17.703 1.139 4.106 1.5 6.222 1.5 6.222s-.553-2.044-2.035-5.956c-1.504-3.899-4.111-9.564-7.508-16.994-1.662-3.73-3.646-7.836-5.619-12.428-.992-2.291-1.963-4.712-2.928-7.228-.959-2.514-1.877-5.149-2.598-7.876-.357-1.36-.668-2.744-.885-4.124-.09-.569-.18-1.146-.271-1.728-.07-.526-.123-1.062-.145-1.603-.035-1.079.041-2.193.365-3.27.316-1.074.906-2.098 1.762-2.888.424-.396.904-.738 1.422-1.021.258-.143.525-.272.799-.388.242-.113.674-.241 1.002-.364 1.51-.505 3.133-.952 4.762-1.298 3.271-.694 6.697-1.138 10.229-1.098 7.051.03 14.488 1.83 21.342 5.54 6.832 3.719 13.012 9.47 17.182 16.861 1.043 1.845 1.969 3.781 2.748 5.804.801 2.055 1.49 4.221 2.051 6.413 1.121 4.398 1.725 9.016 1.725 13.723.012 9.403-2.457 19.206-7.549 27.933-5.055 8.729-12.756 16.306-22.305 21.175-2.402 1.231-4.828 2.249-7.502 3.174-2.648.914-5.363 1.686-8.135 2.283-5.541 1.203-11.301 1.74-17.121 1.532-11.628-.396-23.51-3.844-33.943-10.296-10.438-6.417-19.346-15.858-25.088-27.317-.723-1.43-1.391-2.892-2.015-4.378-.31-.744-.608-1.494-.896-2.251-.292-.771-.577-1.563-.852-2.35-1.09-3.157-2.012-6.388-2.742-9.677-1.463-6.578-2.17-13.392-2.049-20.266.224-13.741 3.839-27.746 10.769-40.276 6.896-12.536 17.121-23.536 29.713-31.305 3.142-1.947 6.431-3.691 9.835-5.229 1.706-.766 3.434-1.479 5.199-2.14 1.813-.679 3.645-1.313 5.496-1.897 7.402-2.339 15.103-3.919 22.947-4.625 15.68-1.439 31.953.628 47.213 6.292 15.256 5.642 29.461 14.878 40.896 27.055 5.723 6.078 10.752 12.876 14.924 20.238 2.092 3.678 3.959 7.501 5.611 11.436 1.619 3.886 3.123 8.144 4.404 12.354 5.145 16.931 6.99 35.064 5.098 53.096-1.869 18.021-7.469 35.912-16.572 52.1-9.078 16.191-21.666 30.637-36.889 41.873-7.611 5.615-15.863 10.445-24.609 14.352-2.186.977-4.4 1.896-6.645 2.758-2.256.861-4.633 1.725-6.975 2.504-4.711 1.569-9.49 2.956-14.336 4.115-19.371 4.673-39.745 5.905-59.903 3.407-20.152-2.479-40.067-8.691-58.35-18.395-18.286-9.685-34.903-22.875-48.544-38.826-6.824-7.973-12.902-16.631-18.118-25.837-2.607-4.603-5.001-9.343-7.169-14.199-2.18-4.856-4.074-9.792-5.898-15.066-7.19-20.835-11.189-42.89-11.57-65.205-.396-22.308 2.802-44.861 9.587-66.486 6.771-21.624 17.104-42.313 30.604-60.863 13.49-18.555 30.14-34.949 49.177-48.164 9.514-6.614 19.621-12.433 30.193-17.384 5.3-2.481 10.658-4.723 16.22-6.784 5.668-2.108 11.412-4.026 17.217-5.75 23.218-6.901 47.468-10.633 71.912-10.908 24.438-.289 49.059 2.88 72.889 9.468 23.83 6.579 46.861 16.574 68.096 29.677 21.236 13.093 40.668 29.293 57.387 48.028 16.73 18.729 30.729 39.987 41.402 62.979 2.67 5.748 5.133 11.604 7.387 17.553 2.311 6.091 4.465 12.329 6.428 18.583 3.926 12.529 7.125 25.298 9.541 38.229 4.848 25.862 6.584 52.385 5.074 78.833-1.5 26.448-6.238 52.819-14.125 78.322-7.879 25.503-18.91 50.131-32.807 73.098-13.889 22.97-30.65 44.265-49.824 63.176-19.172 18.916-40.758 35.431-64.148 49.015-11.693 6.795-23.838 12.861-36.346 18.161-12.336 5.224-25.822 9.993-39.205 14.05-26.869 8.119-54.57 13.518-82.583 16.018-28.01 2.497-56.327 2.104-84.364-1.22-56.076-6.599-111.006-25.024-159.963-53.852-48.993-28.761-91.895-67.907-124.775-114.268-16.458-23.168-30.446-48.104-41.697-74.308-1.407-3.274-2.772-6.569-4.094-9.883l-1.952-4.984-1.914-5.078c-2.563-6.901-4.98-13.855-7.248-20.855-4.539-13.998-8.484-28.177-11.816-42.493-13.359-57.251-16.769-116.736-9.957-175.118 6.762-58.377 23.697-115.602 49.736-168.241 25.997-52.664 61.084-100.69 103.154-141.16 42.048-40.516 91.053-73.399 144.203-97.005 6.643-2.958 13.35-5.77 20.115-8.438l5.083-1.978 5.174-1.947c3.516-1.312 7.042-2.585 10.576-3.834 14.136-4.994 28.426-9.481 42.827-13.484 28.807-7.991 58.083-13.97 87.57-17.878 58.969-7.827 118.773-7.331 177.16 1.307 58.391 8.603 115.34 25.313 168.695 49.221 53.369 23.893 103.127 54.979 147.453 91.882 44.352 36.885 83.238 79.586 115.451 126.354 16.115 23.382 30.57 47.779 43.299 72.958 6.363 12.59 12.299 25.373 17.793 38.326 2.75 6.476 5.393 12.992 7.92 19.549l1.879 4.923 1.893 5.069c1.256 3.397 2.486 6.8 3.699 10.207 19.352 54.529 32.729 110.51 39.996 166.727 7.291 56.212 8.488 112.644 3.918 168.042-4.561 55.403-14.893 109.767-30.377 161.957-15.486 52.194-36.111 102.216-61.102 149.109-24.979 46.908-54.318 90.684-87.08 130.636-32.766 39.962-68.957 76.091-107.605 107.974-38.645 31.896-79.744 59.538-122.326 82.84-21.287 11.659-42.955 22.226-64.875 31.744-10.963 4.755-21.99 9.241-33.066 13.477-2.818 1.062-5.633 2.119-8.445 3.179-2.865 1.049-5.727 2.097-8.586 3.144-5.725 2.068-11.455 4.081-17.188 6.037-91.732 31.343-184.15 48.245-273.146 52.828-89.039 4.627-174.602-2.978-253.813-19.375-79.266-16.388-152.183-41.506-217.39-71.626-65.256-30.126-122.827-65.225-172.677-101.853-49.883-36.647-92.08-74.813-127.469-111.652-35.403-36.866-64.045-72.4-87.23-104.454-23.184-32.076-40.952-60.672-54.579-84.268-13.612-23.612-23.109-42.23-29.373-54.836-3.124-6.308-5.431-11.119-6.967-14.349-1.527-3.233-2.303-4.876-2.303-4.876z" fill="#b5b1aa"/>
   <path d="m-418.333 744.484c0 0 .776 1.643 2.303 4.876 1.536 3.229 3.844 8.041 6.967 14.349 6.263 12.604 15.761 31.223 29.373 54.836 13.627 23.595 31.396 52.19 54.579 84.268 23.185 32.054 51.827 67.588 87.23 104.453 35.389 36.842 77.586 75.006 127.469 111.653 49.85 36.627 107.42 71.726 172.677 101.853 65.207 30.119 138.124 55.237 217.39 71.625 79.211 16.398 164.773 24.002 253.813 19.375 88.996-4.582 181.414-21.484 273.146-52.827 5.732-1.956 11.463-3.97 17.188-6.037 2.859-1.047 5.723-2.095 8.586-3.145 2.813-1.059 5.627-2.116 8.445-3.178 11.076-4.235 22.104-8.722 33.066-13.478 21.92-9.519 43.588-20.084 64.877-31.743 42.58-23.303 83.682-50.942 122.324-82.841 38.646-31.883 74.84-68.012 107.605-107.974 32.762-39.952 62.104-83.727 87.08-130.635 24.988-46.896 45.615-96.915 61.102-149.11 15.484-52.189 25.816-106.553 30.377-161.957 4.57-55.397 3.373-111.83-3.918-168.042-7.27-56.216-20.646-112.196-39.996-166.726-1.213-3.407-2.443-6.81-3.697-10.207l-1.895-5.069-1.879-4.923c-2.527-6.558-5.17-13.073-7.92-19.549-5.494-12.953-11.43-25.736-17.793-38.326-12.729-25.178-27.184-49.575-43.299-72.958-32.213-46.768-71.1-89.469-115.451-126.354-44.326-36.903-94.084-67.989-147.453-91.882-53.355-23.908-110.307-40.618-168.695-49.221-58.387-8.637-118.191-9.133-177.16-1.307-29.487 3.908-58.764 9.888-87.57 17.878-14.401 4.003-28.69 8.491-42.827 13.484-3.534 1.249-7.061 2.522-10.576 3.834l-5.174 1.947-5.083 1.978c-6.766 2.668-13.473 5.481-20.115 8.438-53.148 23.606-102.155 56.49-144.203 97.005-42.07 40.474-77.157 88.5-103.152 141.162-26.039 52.639-42.974 109.864-49.736 168.241-6.812 58.382-3.402 117.867 9.957 175.118 3.332 14.315 7.277 28.495 11.816 42.493 2.268 7 4.685 13.954 7.248 20.855l1.914 5.078 1.952 4.984c1.322 3.313 2.687 6.606 4.094 9.883 11.251 26.202 25.239 51.139 41.697 74.307 32.88 46.36 75.782 85.507 124.775 114.269 48.957 28.825 103.887 47.253 159.963 53.852 28.037 3.323 56.354 3.716 84.364 1.219 28.013-2.5 55.712-7.896 82.583-16.017 13.381-4.058 26.867-8.826 39.205-14.05 12.508-5.301 24.65-11.366 36.346-18.161 23.391-13.584 44.977-30.1 64.146-49.016 19.174-18.91 35.938-40.206 49.826-63.176 13.895-22.966 24.926-47.594 32.805-73.097 7.887-25.503 12.627-51.874 14.127-78.322 1.508-26.449-.229-52.971-5.074-78.833-2.418-12.933-5.617-25.701-9.543-38.229-1.963-6.254-4.117-12.493-6.428-18.583-2.254-5.949-4.715-11.806-7.385-17.554-10.674-22.992-24.674-44.25-41.402-62.979-16.721-18.735-36.15-34.936-57.387-48.028-21.234-13.103-44.268-23.098-68.096-29.677-23.83-6.587-48.451-9.757-72.891-9.468-24.441.275-48.692 4.007-71.911 10.908-5.805 1.724-11.548 3.642-17.217 5.75-5.562 2.062-10.92 4.303-16.22 6.784-10.572 4.952-20.68 10.771-30.193 17.384-19.037 13.215-35.687 29.608-49.177 48.164-13.5 18.551-23.834 39.24-30.604 60.864-6.785 21.625-9.983 44.179-9.587 66.486.381 22.314 4.38 44.37 11.57 65.205 1.824 5.273 3.72 10.21 5.898 15.065 2.169 4.857 4.563 9.599 7.17 14.2 5.215 9.206 11.292 17.864 18.117 25.836 13.641 15.952 30.26 29.144 48.544 38.827 18.282 9.702 38.197 15.915 58.35 18.395 20.158 2.497 40.533 1.266 59.902-3.407 4.848-1.159 9.627-2.546 14.338-4.115 2.342-.78 4.717-1.643 6.973-2.504 2.244-.861 4.461-1.781 6.646-2.758 8.744-3.905 16.996-8.735 24.607-14.353 15.225-11.235 27.813-25.681 36.891-41.873 9.104-16.187 14.701-34.077 16.57-52.099 1.896-18.03.047-36.165-5.098-53.096-1.279-4.212-2.785-8.471-4.404-12.354-1.652-3.935-3.52-7.758-5.609-11.436-4.172-7.361-9.203-14.16-14.926-20.238-11.434-12.177-25.641-21.414-40.895-27.055-15.262-5.664-31.533-7.731-47.213-6.292-7.846.707-15.545 2.287-22.948 4.625-1.852.585-3.685 1.219-5.496 1.897-1.766.662-3.493 1.375-5.199 2.14-3.403 1.536-6.692 3.28-9.835 5.229-12.592 7.769-22.816 18.769-29.713 31.304-6.93 12.531-10.545 26.536-10.769 40.277-.121 6.874.586 13.687 2.049 20.265.73 3.289 1.652 6.521 2.743 9.678.272.786.559 1.576.851 2.35.286.757.585 1.507.896 2.251.625 1.486 1.293 2.948 2.015 4.378 5.743 11.459 14.649 20.9 25.088 27.317 10.433 6.451 22.315 9.899 33.944 10.296 5.818.208 11.58-.329 17.119-1.532 2.771-.599 5.486-1.369 8.135-2.283 2.674-.925 5.1-1.941 7.504-3.174 9.547-4.869 17.248-12.446 22.303-21.175 5.092-8.728 7.563-18.528 7.549-27.934.002-4.707-.602-9.322-1.723-13.722-.561-2.193-1.252-4.359-2.051-6.413-.781-2.021-1.707-3.959-2.748-5.804-4.17-7.394-10.352-13.145-17.184-16.861-6.852-3.71-14.289-5.51-21.34-5.541-3.531-.04-6.957.403-10.229 1.099-1.631.346-3.252.793-4.764 1.298-.328.123-.76.251-1 .363-.273.114-.541.245-.801.389-.516.283-.996.626-1.422 1.021-.854.79-1.443 1.813-1.76 2.889-.326 1.074-.4 2.189-.365 3.27.02.541.072 1.075.145 1.603.092.58.182 1.156.27 1.728.217 1.38.527 2.763.885 4.124.723 2.726 1.641 5.362 2.6 7.876.965 2.515 1.934 4.936 2.928 7.227 1.973 4.593 3.955 8.697 5.617 12.429 3.396 7.43 6.006 13.095 7.508 16.994 1.484 3.911 2.037 5.955 2.037 5.955s-.742-1.975-2.572-5.691c-1.816-3.728-4.791-9.148-8.742-16.282-1.965-3.573-4.166-7.581-6.445-12.095-2.256-4.52-4.668-9.531-6.532-15.259-.905-2.863-1.686-5.927-1.824-9.178-.055-1.617.061-3.291.546-4.904.477-1.61 1.362-3.146 2.643-4.331 1.271-1.205 2.892-2.008 4.582-2.605 1.686-.633 3.43-1.19 5.229-1.649 3.6-.915 7.416-1.479 11.363-1.552 7.881-.173 16.313 1.585 24.139 5.648 7.805 4.044 14.986 10.439 19.936 18.808 2.486 4.169 4.357 8.813 5.715 13.695 1.35 4.888 2.133 10.051 2.236 15.342.225 10.569-2.326 21.681-7.896 31.692-5.527 10.009-14.143 18.865-24.992 24.683-10.869 5.726-23.609 8.819-36.729 8.633-13.113-.184-26.625-3.794-38.634-10.888-12.011-7.05-22.458-17.646-29.336-30.699-3.448-6.514-5.977-13.599-7.792-20.935-1.79-7.348-2.742-15.002-2.761-22.76-.058-15.51 3.698-31.442 11.29-45.854 7.55-14.412 18.982-27.266 33.301-36.511 7.138-4.648 14.994-8.323 23.24-11.083 8.239-2.786 16.86-4.738 25.686-5.712 17.646-1.978 36.109-.024 53.563 6.056 17.445 6.054 33.871 16.236 47.289 29.949 6.713 6.844 12.668 14.552 17.652 22.941 2.498 4.19 4.744 8.558 6.74 13.055 1.986 4.504 3.721 9.139 5.262 13.855 6.15 18.873 8.67 39.312 6.936 59.768-1.705 20.446-7.637 40.886-17.639 59.552-9.973 18.669-24.047 35.538-41.326 48.85-8.637 6.652-18.051 12.427-28.053 17.143-10.01 4.698-20.563 8.396-31.396 11.258-21.684 5.693-44.696 7.568-67.599 5.196-22.898-2.35-45.667-8.936-66.741-19.575-21.076-10.62-40.438-25.323-56.523-43.373-16.116-18.022-28.832-39.422-37.225-62.678-8.531-23.199-13.562-47.996-14.501-73.24-.959-25.236 2.144-50.898 9.361-75.645 7.2-24.746 18.489-48.579 33.516-70.14 15.012-21.563 33.771-40.832 55.438-56.544 10.828-7.862 22.375-14.832 34.479-20.808 12.1-5.991 24.781-10.896 37.742-15.051 25.938-8.28 53.244-13.062 80.917-13.931 27.666-.886 55.684 2.137 82.932 9.079 27.248 6.933 53.727 17.779 78.314 32.267 24.592 14.477 47.281 32.602 66.992 53.796 19.721 21.181 36.43 45.433 49.32 71.775 6.467 13.164 11.889 26.873 16.6 40.854 4.693 13.989 8.586 28.299 11.607 42.836 6.057 29.07 8.637 59.056 7.531 89.086-1.096 30.028-5.865 60.099-14.252 89.306-8.379 29.208-20.379 57.551-35.736 84.145-15.35 26.594-34.072 51.428-55.701 73.652-21.621 22.23-46.162 41.831-72.898 58.104-13.365 8.14-27.277 15.45-41.619 21.88-14.35 6.421-29.121 11.957-44.129 16.846-30.031 9.735-61.18 16.469-92.816 19.936-31.634 3.467-63.752 3.675-95.665.546-63.828-6.207-126.794-25.868-183.463-57.693-56.697-31.745-107.021-75.71-146.141-128.526-19.575-26.385-36.373-54.929-50.019-84.984-6.831-15.026-12.83-30.441-18.258-46.064-5.417-15.628-10.18-31.502-14.26-47.565-16.367-64.256-21.634-131.596-15.237-198.055 6.339-66.46 24.263-131.992 52.778-192.721 28.465-60.748 67.531-116.673 115.057-164.312 47.482-47.682 103.439-86.962 164.418-115.562 15.231-7.182 30.801-13.627 46.563-19.542 15.76-5.924 31.726-11.294 47.851-16.126 32.254-9.649 65.167-17.069 98.422-22.16 66.512-10.198 134.373-11.028 200.924-2.556 66.561 8.434 131.789 26.123 193.252 52.175 61.477 26.035 119.18 60.433 170.99 101.799 51.834 41.341 97.736 89.665 136.115 142.998 19.197 26.662 36.52 54.566 51.863 83.421 15.365 28.847 28.658 58.676 40.078 89.093 22.953 60.793 39.34 123.643 48.842 187.063 9.531 63.419 12.195 127.384 8.277 190.401-3.906 63.022-14.395 125.09-30.822 184.895-16.434 59.811-38.793 117.358-66.273 171.562-27.465 54.217-60.053 105.08-96.764 151.765-36.709 46.693-77.551 89.193-121.43 126.937-43.871 37.758-90.781 70.74-139.543 98.747-24.379 14.012-49.227 26.771-74.385 38.317-25.154 11.56-50.664 21.784-76.25 31.101-51.178 18.624-102.803 33.296-154.215 44.176-51.414 10.887-102.608 17.983-152.99 21.616-100.798 7.283-198.182.639-288.679-16.192-90.563-16.816-174.259-43.739-249.436-76.624-75.232-32.892-141.977-71.715-200.049-112.581-58.109-40.888-107.581-83.804-149.257-125.442-41.695-41.667-75.642-82.043-103.22-118.563-27.58-36.547-48.84-69.234-65.186-96.234-16.33-27.022-27.779-48.366-35.335-62.816-3.77-7.232-6.558-12.751-8.415-16.455-1.847-3.709-2.785-5.595-2.785-5.595z" fill="#b04b32"/>
   <path d="m-559.31 814.191c0 0 .938 1.885 2.785 5.594 1.857 3.704 4.645 9.223 8.415 16.455 7.557 14.451 19.006 35.794 35.335 62.816 16.346 27 37.605 59.688 65.186 96.234 27.579 36.521 61.525 76.896 103.22 118.563 41.676 41.64 91.147 84.556 149.257 125.442 58.072 40.866 124.816 79.689 200.049 112.581 75.177 32.885 158.874 59.809 249.436 76.624 90.498 16.831 187.881 23.478 288.679 16.192 50.38-3.632 101.576-10.729 152.99-21.616 51.412-10.88 103.037-25.552 154.215-44.176 25.586-9.315 51.094-19.541 76.25-31.101 25.158-11.546 50.006-24.307 74.385-38.317 48.762-28.006 95.67-60.989 139.543-98.747 43.877-37.742 84.721-80.242 121.43-126.937 36.711-46.685 69.299-97.548 96.764-151.765 27.48-54.202 49.842-111.751 66.273-171.561 16.43-59.806 26.916-121.871 30.822-184.896 3.918-63.018 1.252-126.982-8.277-190.401-9.502-63.42-25.889-126.27-48.844-187.063-11.418-30.417-24.711-60.247-40.078-89.093-15.342-28.855-32.666-56.76-51.861-83.421-38.379-53.333-84.281-101.657-136.115-142.998-51.813-41.366-109.516-75.764-170.99-101.799-61.463-26.052-126.691-43.741-193.252-52.175-66.551-8.472-134.414-7.642-200.924 2.556-33.255 5.091-66.168 12.511-98.422 22.16-16.125 4.832-32.091 10.203-47.852 16.126-15.763 5.915-31.333 12.36-46.563 19.542-60.979 28.599-116.936 67.879-164.418 115.561-47.529 47.646-86.595 103.571-115.06 164.319-28.515 60.729-46.439 126.261-52.778 192.721-6.397 66.458-1.13 133.799 15.234 198.046 4.08 16.063 8.843 31.938 14.26 47.565 5.428 15.623 11.427 31.038 18.258 46.064 13.646 30.057 30.443 58.601 50.019 84.985 39.12 52.815 89.444 96.78 146.141 128.525 56.669 31.825 119.635 51.486 183.463 57.693 31.912 3.129 64.029 2.921 95.666-.546 31.637-3.466 62.785-10.199 92.814-19.936 15.008-4.889 29.779-10.425 44.129-16.846 14.344-6.429 28.254-13.74 41.619-21.88 26.738-16.273 51.277-35.874 72.9-58.104 21.629-22.226 40.352-47.06 55.701-73.652 15.355-26.594 27.355-54.937 35.734-84.145 8.389-29.207 13.158-59.275 14.252-89.306 1.105-30.03-1.475-60.015-7.529-89.086-3.021-14.537-6.914-28.846-11.607-42.836-4.711-13.981-10.133-27.691-16.6-40.854-12.893-26.342-29.602-50.595-49.32-71.775-19.711-21.194-42.402-39.32-66.994-53.796-24.588-14.488-51.064-25.334-78.314-32.267-27.248-6.941-55.266-9.964-82.932-9.079-27.672.869-54.979 5.651-80.917 13.931-12.961 4.155-25.642 9.06-37.742 15.051-12.104 5.976-23.65 12.946-34.479 20.808-21.669 15.712-40.428 34.981-55.439 56.544-15.025 21.561-26.314 45.394-33.516 70.14-7.217 24.748-10.32 50.408-9.361 75.645.939 25.244 5.971 50.041 14.501 73.24 8.393 23.256 21.109 44.655 37.225 62.678 16.086 18.05 35.447 32.753 56.522 43.373 21.074 10.641 43.844 17.228 66.741 19.575 22.903 2.372 45.916.497 67.599-5.196 10.836-2.859 21.389-6.56 31.398-11.258 10-4.716 19.414-10.489 28.051-17.142 17.281-13.313 31.354-30.182 41.326-48.851 10.002-18.666 15.936-39.104 17.639-59.552 1.734-20.456-.783-40.895-6.934-59.768-1.541-4.718-3.277-9.353-5.262-13.855-1.998-4.497-4.242-8.863-6.742-13.054-4.984-8.391-10.939-16.099-17.652-22.942-13.418-13.712-29.844-23.895-47.289-29.949-17.453-6.08-35.918-8.034-53.563-6.056-8.826.974-17.447 2.926-25.686 5.712-8.245 2.76-16.102 6.435-23.239 11.083-14.317 9.245-25.75 22.099-33.302 36.511-7.592 14.412-11.347 30.347-11.29 45.854.021 7.758.973 15.412 2.762 22.76 1.814 7.336 4.345 14.421 7.792 20.935 6.878 13.053 17.326 23.649 29.336 30.699 12.01 7.095 25.521 10.704 38.633 10.889 13.121.187 25.859-2.908 36.729-8.634 10.852-5.816 19.465-14.674 24.992-24.683 5.572-10.013 8.121-21.123 7.896-31.692-.104-5.291-.887-10.454-2.236-15.342-1.355-4.884-3.229-9.525-5.715-13.694-4.949-8.367-12.129-14.765-19.936-18.809-7.824-4.063-16.258-5.821-24.139-5.647-3.947.072-7.764.636-11.361 1.551-1.801.459-3.545 1.018-5.229 1.649-1.691.599-3.313 1.4-4.583 2.605-1.28 1.186-2.166 2.721-2.642 4.331-.486 1.614-.603 3.287-.546 4.905.139 3.251.918 6.313 1.823 9.177 1.864 5.728 4.278 10.74 6.534 15.259 2.279 4.514 4.48 8.521 6.445 12.095 3.951 7.134 6.926 12.557 8.74 16.282 1.83 3.718 2.572 5.692 2.572 5.692s-.932-1.904-3.107-5.43c-2.129-3.553-5.471-8.73-9.977-15.57-2.268-3.415-4.686-7.325-7.271-11.761-2.581-4.445-5.289-9.42-7.54-15.416-.558-1.505-1.077-3.08-1.512-4.761-.098-.412-.231-.856-.341-1.364-.074-.521-.249-1.034-.317-1.565-.136-1.058-.332-2.142-.323-3.229-.111-2.188.179-4.401.872-6.521.752-2.077 1.926-4.09 3.627-5.651.831-.798 1.755-1.521 2.791-2.078.504-.301 1.028-.575 1.567-.822.564-.264.98-.434 1.484-.652 1.854-.772 3.721-1.437 5.691-2.009 3.926-1.139 8.133-1.819 12.494-2.006 8.711-.375 18.139 1.339 26.938 5.757 8.779 4.37 16.959 11.411 22.688 20.755 1.432 2.328 2.717 4.785 3.814 7.354 1.092 2.533 2.023 5.124 2.814 7.818 1.58 5.378 2.541 11.087 2.752 16.961.438 11.736-2.193 24.153-8.246 35.452-6 11.29-15.525 21.427-27.68 28.189-3.008 1.688-6.262 3.186-9.453 4.415-3.219 1.244-6.541 2.317-9.953 3.187-6.822 1.74-13.992 2.675-21.295 2.678-14.599.027-29.737-3.746-43.325-11.479-13.583-7.684-25.572-19.438-33.584-34.08-1.005-1.823-1.943-3.692-2.824-5.596-.438-.951-.861-1.911-1.269-2.882-.4-.954-.783-1.902-1.157-2.867-1.486-3.848-2.774-7.812-3.831-11.87-2.116-8.117-3.313-16.613-3.474-25.256-.339-17.276 3.557-35.138 11.81-51.432 8.205-16.288 20.848-30.996 36.891-41.717 4-2.685 8.205-5.115 12.569-7.278 2.184-1.077 4.411-2.092 6.665-3.03 2.207-.919 4.446-1.785 6.714-2.593 9.072-3.232 18.618-5.557 28.426-6.798 19.609-2.517 40.266-.676 59.912 5.82 19.639 6.467 38.281 17.595 53.684 32.843 7.703 7.608 14.584 16.228 20.381 25.646 2.906 4.704 5.529 9.611 7.871 14.674 2.352 5.12 4.316 10.133 6.119 15.357 7.156 20.814 10.346 43.557 8.771 66.438-1.541 22.873-7.803 45.856-18.705 67.004-10.869 21.146-26.426 40.439-45.764 55.826-9.662 7.688-20.238 14.405-31.496 19.932-2.813 1.382-5.67 2.69-8.563 3.924-2.887 1.226-5.697 2.356-8.602 3.444-5.779 2.161-11.674 4.103-17.676 5.771-23.994 6.715-49.647 9.231-75.294 6.986-25.646-2.219-51.268-9.178-75.134-20.758-23.866-11.557-45.969-27.772-64.501-47.919-9.27-10.063-17.635-21.101-24.905-32.914-3.636-5.906-6.999-12.006-10.071-18.269-3.084-6.255-5.847-12.744-8.288-19.07-9.872-25.563-15.934-53.104-17.432-81.275-1.521-28.166 1.486-56.935 9.134-84.803 7.631-27.867 19.875-54.844 36.428-79.415 16.534-24.57 37.401-46.715 61.702-64.924 12.142-9.11 25.128-17.231 38.765-24.231 6.805-3.495 13.826-6.732 20.879-9.64 6.94-2.871 14.002-5.517 21.168-7.928 28.659-9.658 59.023-15.49 89.923-16.953 30.896-1.482 62.307 1.395 92.975 8.69 30.668 7.286 60.596 18.983 88.537 34.856 27.941 15.86 53.896 35.911 76.598 59.564 22.711 23.633 42.129 50.879 57.238 80.572 3.781 7.421 7.293 14.992 10.533 22.688 3.182 7.556 6.113 15.151 8.852 22.885 5.463 15.45 10.049 31.299 13.676 47.44 7.266 32.28 10.688 65.729 9.986 99.339-.688 33.611-5.49 67.377-14.379 100.289-8.881 32.912-21.848 64.972-38.666 95.189-16.811 30.219-37.492 58.592-61.578 84.133-24.072 25.544-51.564 48.231-81.648 67.193-15.039 9.483-30.717 18.041-46.896 25.6-8.063 3.78-16.398 7.328-24.426 10.527-8.115 3.234-16.326 6.275-24.625 9.112-33.191 11.354-67.785 19.422-103.049 23.854-35.261 4.435-71.18 5.244-106.966 2.31-71.581-5.815-142.583-26.71-206.964-61.534-32.194-17.393-62.74-38.231-90.896-62.184-28.162-23.938-53.92-50.996-76.611-80.602-22.692-29.604-42.299-61.754-58.34-95.665-2.006-4.238-3.958-8.504-5.853-12.794l-2.801-6.455-2.691-6.426c-3.497-8.469-6.82-17.021-9.964-25.651-6.293-17.26-11.874-34.828-16.703-52.641-19.363-71.236-26.488-146.431-20.505-220.967 5.916-74.543 24.829-148.382 55.819-217.202 30.936-68.835 73.981-132.659 126.963-187.466 26.474-27.409 55.409-52.561 86.354-75.034 30.94-22.479 63.892-42.267 98.28-59.083 8.596-4.207 17.282-8.227 26.048-12.058l6.588-2.842 6.551-2.741c4.313-1.789 8.646-3.533 12.991-5.247 17.383-6.854 35.027-13.107 52.876-18.768 35.703-11.307 72.252-20.167 109.277-26.442 74.05-12.569 149.97-14.726 224.687-6.419 74.729 8.265 148.236 26.933 217.809 55.128 69.582 28.177 135.23 65.887 194.525 111.716 59.318 45.796 112.238 99.744 156.779 159.642 22.279 29.94 42.473 61.354 60.428 93.885 8.979 16.266 17.402 32.81 25.25 49.587 3.926 8.388 7.713 16.833 11.352 25.333l2.705 6.383 2.602 6.268c1.715 4.171 3.4 8.353 5.063 12.542 26.563 67.057 45.955 136.775 57.691 207.401 11.77 70.625 15.902 142.125 12.639 212.76-3.252 70.646-13.895 140.414-31.271 207.832-17.377 67.426-41.475 132.502-71.443 194.014-29.955 61.523-65.791 119.478-106.447 172.894-40.654 53.425-86.146 102.297-135.256 145.898-49.1 43.618-101.82 81.944-156.762 114.653-27.467 16.364-55.494 31.319-83.891 44.894-14.201 6.782-28.496 13.215-42.859 19.312-3.557 1.487-7.107 2.974-10.656 4.457-3.52 1.436-7.035 2.867-10.549 4.301-7.037 2.832-14.088 5.598-21.148 8.296-56.494 21.591-113.699 38.853-170.828 51.898-57.129 13.056-114.18 21.898-170.435 26.855-56.261 4.959-111.727 6.039-165.818 3.698-54.097-2.334-106.818-8.087-157.728-16.709-101.86-17.243-196.335-45.972-281.483-81.621-85.208-35.655-161.126-78.204-227.42-123.312-66.336-45.127-123.083-92.794-171.046-139.23-47.985-46.469-87.237-91.687-119.21-132.673-31.977-41.017-56.728-77.797-75.792-108.201-19.048-30.435-32.449-54.501-41.299-70.801-4.416-8.155-7.684-14.383-9.862-18.562-2.166-4.185-3.267-6.312-3.267-6.312z" fill="#fff"/>
   <path d="m-700.287 883.899c0 0 1.101 2.126 3.267 6.311 2.178 4.179 5.446 10.405 9.862 18.562 8.85 16.3 22.251 40.366 41.299 70.801 19.064 30.404 43.815 67.186 75.792 108.201 31.973 40.986 71.225 86.204 119.21 132.673 47.963 46.438 104.71 94.104 171.046 139.23 66.294 45.106 142.212 87.655 227.42 123.312 85.148 35.649 179.623 64.378 281.483 81.621 50.91 8.622 103.631 14.375 157.728 16.709 54.091 2.341 109.557 1.261 165.818-3.698 56.255-4.957 113.306-13.802 170.435-26.855 57.129-13.047 114.334-30.309 170.828-51.898 7.063-2.698 14.111-5.464 21.148-8.296 3.514-1.434 7.029-2.865 10.549-4.301 3.547-1.483 7.102-2.97 10.656-4.457 14.363-6.097 28.658-12.527 42.859-19.312 28.396-13.573 56.424-28.528 83.891-44.894 54.941-32.709 107.662-71.035 156.762-114.653 49.109-43.603 94.602-92.475 135.256-145.898 40.656-53.416 76.492-111.369 106.447-172.894 29.971-61.512 54.066-126.588 71.443-194.014 17.377-67.418 28.02-137.188 31.271-207.832 3.266-70.635-.869-142.135-12.639-212.76-11.736-70.625-31.129-140.344-57.691-207.401-1.662-4.189-3.35-8.371-5.063-12.542l-2.602-6.268-2.705-6.383c-3.639-8.5-7.426-16.945-11.352-25.333-7.848-16.778-16.271-33.321-25.25-49.587-17.955-32.532-38.146-63.945-60.428-93.885-44.541-59.897-97.461-113.845-156.779-159.642-59.295-45.829-124.943-83.54-194.525-111.716-69.57-28.196-143.08-46.864-217.809-55.128-74.717-8.307-150.637-6.15-224.687 6.419-37.024 6.275-73.574 15.135-109.277 26.442-17.849 5.661-35.493 11.914-52.876 18.768-4.346 1.713-8.678 3.458-12.991 5.247l-6.551 2.741-6.588 2.842c-8.766 3.831-17.452 7.851-26.048 12.058-34.389 16.815-67.34 36.604-98.28 59.083-30.945 22.473-59.88 47.625-86.354 75.034-52.98 54.805-96.025 118.629-126.961 187.464-30.991 68.819-49.903 142.659-55.819 217.202-5.983 74.536 1.142 149.731 20.511 220.976 4.829 17.813 10.41 35.381 16.703 52.641 3.145 8.63 6.468 17.184 9.964 25.65l2.691 6.427 2.801 6.455c1.896 4.29 3.847 8.556 5.853 12.794 16.041 33.911 35.647 66.063 58.34 95.665 22.69 29.604 48.449 56.663 76.611 80.602 28.155 23.951 58.702 44.791 90.896 62.183 64.381 34.825 135.384 55.72 206.964 61.535 35.786 2.936 71.705 2.125 106.967-2.31 35.262-4.433 69.855-12.501 103.049-23.854 8.297-2.837 16.51-5.878 24.625-9.112 8.025-3.199 16.361-6.747 24.424-10.527 16.18-7.559 31.857-16.115 46.896-25.6 30.084-18.962 57.578-41.649 81.65-67.193 24.086-25.541 44.768-53.914 61.576-84.133 16.82-30.219 29.787-62.277 38.668-95.189 8.887-32.912 13.689-66.678 14.379-100.289.701-33.61-2.723-67.059-9.988-99.339-3.625-16.142-8.213-31.991-13.674-47.44-2.738-7.734-5.672-15.329-8.854-22.885-3.238-7.697-6.752-15.268-10.531-22.688-15.111-29.693-34.527-56.939-57.238-80.572-22.701-23.653-48.656-43.704-76.6-59.564-27.941-15.873-57.869-27.57-88.535-34.856-30.668-7.296-62.08-10.173-92.975-8.69-30.9 1.463-61.265 7.295-89.924 16.953-7.166 2.412-14.229 5.058-21.168 7.928-7.052 2.908-14.075 6.145-20.879 9.64-13.637 7-26.623 15.122-38.765 24.231-24.301 18.209-45.168 40.354-61.702 64.924-16.552 24.571-28.797 51.548-36.428 79.415-7.647 27.868-10.655 56.637-9.134 84.803 1.498 28.173 7.561 55.712 17.432 81.275 2.44 6.325 5.203 12.815 8.288 19.07 3.072 6.263 6.436 12.361 10.071 18.269 7.271 11.813 15.637 22.851 24.905 32.914 18.532 20.146 40.635 36.362 64.501 47.919 23.867 11.58 49.489 18.539 75.134 20.758 25.647 2.245 51.299-.271 75.293-6.986 6.002-1.668 11.896-3.608 17.678-5.771 2.902-1.088 5.715-2.221 8.602-3.444 2.893-1.232 5.748-2.542 8.563-3.924 11.258-5.525 21.834-12.243 31.494-19.932 19.338-15.387 34.896-34.682 45.766-55.826 10.9-21.146 17.162-44.131 18.703-67.004 1.574-22.882-1.611-45.623-8.77-66.438-1.803-5.226-3.77-10.237-6.119-15.357-2.344-5.063-4.967-9.97-7.871-14.674-5.797-9.417-12.68-18.037-20.381-25.646-15.402-15.249-34.047-26.376-53.686-32.843-19.646-6.496-40.301-8.336-59.91-5.82-9.811 1.242-19.355 3.566-28.427 6.798-2.268.809-4.507 1.674-6.714 2.593-2.253.938-4.48 1.953-6.665 3.03-4.365 2.163-8.569 4.594-12.569 7.278-16.044 10.722-28.686 25.429-36.891 41.717-8.253 16.294-12.148 34.154-11.81 51.432.16 8.643 1.357 17.139 3.474 25.255 1.058 4.061 2.345 8.023 3.831 11.871.374.964.757 1.913 1.157 2.867.407.97.831 1.931 1.269 2.882.881 1.902 1.819 3.771 2.824 5.596 8.013 14.644 20.001 26.396 33.584 34.08 13.587 7.733 28.726 11.508 43.324 11.479 7.303-.003 14.475-.938 21.295-2.678 3.412-.868 6.734-1.941 9.953-3.187 3.191-1.229 6.447-2.729 9.455-4.415 12.152-6.764 21.678-16.899 27.678-28.189 6.053-11.299 8.684-23.716 8.246-35.452-.209-5.874-1.172-11.583-2.75-16.961-.793-2.694-1.725-5.285-2.814-7.818-1.1-2.568-2.385-5.025-3.814-7.354-5.73-9.344-13.91-16.385-22.689-20.755-8.797-4.418-18.225-6.132-26.938-5.757-4.361.187-8.568.867-12.492 2.006-1.973.572-3.84 1.235-5.693 2.009-.502.22-.918.39-1.484.652-.539.246-1.063.521-1.566.822-1.035.559-1.96 1.28-2.791 2.078-1.701 1.563-2.875 3.574-3.627 5.651-.693 2.119-.983 4.333-.872 6.521-.009 1.088.188 2.172.323 3.229.069.531.244 1.046.317 1.565.109.508.243.952.341 1.364.435 1.68.955 3.256 1.512 4.761 2.251 5.996 4.959 10.971 7.541 15.416 2.586 4.436 5.004 8.346 7.27 11.761 4.506 6.84 7.848 12.019 9.977 15.57 2.178 3.524 3.107 5.43 3.107 5.43s-1.119-1.834-3.645-5.165c-1.266-1.665-2.732-3.782-4.617-6.246-1.891-2.473-4.09-5.346-6.592-8.613-2.568-3.258-5.207-7.069-8.1-11.427-2.903-4.373-5.907-9.309-8.547-15.573-.654-1.576-1.28-3.248-1.825-5.079-.113-.439-.305-.946-.453-1.57-.081-.651-.365-1.291-.452-1.957-.114-.664-.145-1.333-.305-2.014-.115-.678-.103-1.357-.127-2.042-.009-.344.015-.68-.014-1.029-.024-.35-.036-.696 0-1.037.042-.687.118-1.37.218-2.052.205-1.361.529-2.71.994-4.019.586-1.231 1.059-2.585 1.9-3.708.767-1.175 1.637-2.316 2.711-3.267 1.023-1.001 2.154-1.934 3.449-2.624.622-.386 1.267-.741 1.935-1.063.57-.271 1.143-.541 1.719-.813 2.023-.911 4.016-1.678 6.156-2.366 4.252-1.359 8.848-2.16 13.625-2.459 9.543-.578 19.965 1.092 29.736 5.863 9.754 4.696 18.934 12.383 25.441 22.701 1.623 2.57 3.088 5.288 4.35 8.131 1.236 2.772 2.287 5.576 3.195 8.521 1.811 5.867 2.949 12.124 3.266 18.58.648 12.902-2.063 26.628-8.596 39.212-6.473 12.571-16.908 23.988-30.365 31.698-1.68.963-3.396 1.869-5.152 2.716-.881.421-1.766.832-2.664 1.222-.883.387-1.734.742-2.613 1.099-3.504 1.409-7.131 2.636-10.861 3.637-7.463 2.011-15.34 3.144-23.385 3.251-16.082.239-32.848-3.696-48.013-12.072-7.579-4.178-14.747-9.458-21.17-15.755-6.419-6.294-12.088-13.61-16.663-21.706-1.146-2.021-2.22-4.093-3.229-6.203-.502-1.056-.988-2.122-1.456-3.197-.454-1.045-.887-2.073-1.311-3.126-1.685-4.192-3.155-8.523-4.375-12.969-2.441-8.886-3.886-18.225-4.186-27.75-.621-19.045 3.416-38.834 12.33-57.009 8.859-18.165 22.71-34.726 40.479-46.924 4.43-3.053 9.092-5.827 13.938-8.303 2.422-1.233 4.899-2.399 7.396-3.475 2.404-1.04 4.848-2.021 7.324-2.941 9.907-3.679 20.375-6.376 31.167-7.885 21.574-3.055 44.42-1.328 66.26 5.583 21.83 6.88 42.693 18.954 60.078 35.737 8.693 8.374 16.5 17.904 23.111 28.35 3.311 5.218 6.313 10.667 9 16.292 1.344 2.813 2.605 5.707 3.73 8.431 1.145 2.772 2.229 5.585 3.246 8.431 8.164 22.757 12.021 47.802 10.605 73.108-1.377 25.3-7.971 50.831-19.771 74.457-11.764 23.621-28.807 45.343-50.201 62.804-10.686 8.725-22.426 16.386-34.939 22.722-3.127 1.584-6.303 3.088-9.521 4.507-1.641.728-3.133 1.358-4.709 2.018-1.559.647-3.127 1.277-4.705 1.896-6.313 2.457-12.766 4.676-19.346 6.6-26.307 7.735-54.597 10.895-82.991 8.774-28.391-2.089-56.868-9.421-83.526-21.938-26.656-12.491-51.5-30.223-72.479-52.466-10.491-11.108-20.001-23.335-28.299-36.452-4.15-6.56-7.998-13.339-11.522-20.304-1.762-3.481-3.444-7.011-5.042-10.581l-1.182-2.686-1.11-2.596c-.736-1.727-1.444-3.468-2.148-5.212-11.212-27.929-18.307-58.209-20.363-89.311-2.083-31.095.828-62.972 8.907-93.961 8.061-30.989 21.261-61.109 39.339-88.691 18.056-27.577 41.032-52.598 67.965-73.304 13.455-10.358 27.882-19.63 43.05-27.655 3.792-2.004 7.631-3.933 11.509-5.785 1.941-.92 3.89-1.829 5.852-2.711l2.948-1.311 2.9-1.261c7.578-3.252 15.3-6.262 23.146-9.018 31.379-11.037 64.801-17.918 98.93-19.976 34.125-2.079 68.932.652 103.018 8.301 34.088 7.64 67.463 20.188 98.76 37.446 31.293 17.243 60.51 39.22 86.201 65.332 25.701 26.085 47.828 56.326 65.158 89.37 4.336 8.257 8.373 16.686 12.105 25.256 3.617 8.288 6.939 16.562 10.066 25.035 6.227 16.911 11.508 34.3 15.736 52.047 8.477 35.487 12.744 72.399 12.445 109.592-.283 37.193-5.117 74.656-14.506 111.272-9.379 36.616-23.314 72.391-41.598 106.235-18.27 33.845-40.912 65.756-67.451 94.612-26.525 28.857-56.973 54.632-90.402 76.283-16.711 10.829-34.156 20.631-52.172 29.318-8.959 4.337-18.34 8.46-27.031 12.061-8.867 3.673-17.852 7.135-26.939 10.376-36.354 12.969-74.395 22.372-113.283 27.771-38.886 5.403-78.607 6.814-118.268 4.074-79.333-5.426-158.372-27.554-230.466-65.378-36.049-18.891-70.373-41.673-102.127-68.008-31.76-26.322-60.938-56.209-86.746-89.036-25.81-32.819-48.226-68.579-66.662-106.344-2.306-4.721-4.55-9.472-6.732-14.25l-3.226-7.19-3.081-7.099c-3.963-9.251-7.74-18.604-11.323-28.05-7.17-18.892-13.568-38.153-19.147-57.716-11.162-39.121-19.036-79.439-23.378-120.312-4.349-40.87-5.171-82.285-2.41-123.592 5.495-82.624 25.395-164.771 58.862-241.681 33.407-76.923 80.43-148.646 138.869-210.621 29.198-30.991 61.221-59.536 95.563-85.128 34.335-25.599 70.991-48.231 109.288-67.544 9.573-4.832 19.249-9.455 29.015-13.868l7.34-3.273 7.24-3.138c4.711-2.027 9.446-4.007 14.198-5.953 19.007-7.784 38.328-14.92 57.901-21.41 39.15-12.965 79.337-23.266 120.131-30.724 81.591-14.94 165.57-18.424 248.451-10.282 82.896 8.095 164.688 27.743 242.363 58.083 77.689 30.319 151.285 71.342 218.066 121.634 66.799 50.252 126.736 109.823 177.443 176.286 25.361 33.22 48.422 68.141 68.992 104.35 10.285 18.104 19.951 36.528 28.979 55.218 4.514 9.344 8.873 18.754 13.064 28.225l3.119 7.112 2.955 6.867c1.945 4.558 3.857 9.128 5.746 13.709 30.166 73.321 52.568 149.909 66.539 227.74 14.01 77.831 19.609 156.866 16.998 235.119-2.598 78.265-13.396 155.738-31.717 230.771-18.324 75.04-44.154 147.646-76.615 216.466-32.443 68.832-71.527 133.875-116.133 194.022-44.598 60.155-94.74 115.399-149.08 164.861-54.328 49.479-112.859 93.148-173.98 130.563-30.557 18.718-61.764 35.865-93.398 51.468-15.818 7.798-31.748 15.2-47.756 22.229-3.926 1.7-7.846 3.398-11.764 5.096-3.846 1.628-7.688 3.254-11.527 4.878-7.693 3.216-15.404 6.357-23.131 9.427-61.813 24.56-124.596 44.408-187.439 59.623-62.85 15.222-125.75 25.813-187.881 32.095-62.138 6.286-123.503 8.272-183.43 6.451-59.933-1.817-118.426-7.441-174.983-16.277-113.158-17.673-218.413-48.204-313.531-86.621-95.184-38.419-180.276-84.692-254.793-134.039-74.563-49.366-138.584-101.785-192.835-153.021-54.277-51.27-98.834-101.328-135.201-146.781-36.373-45.487-64.615-86.36-86.398-120.171-21.766-33.843-37.118-60.635-47.262-78.781-5.062-9.081-8.811-16.015-11.31-20.668-2.485-4.661-3.748-7.028-3.748-7.028z" fill="#489562"/>
   <path d="m-841.269 953.609c0 0 1.263 2.366 3.748 7.027 2.499 4.653 6.248 11.587 11.31 20.668 10.144 18.146 25.496 44.938 47.262 78.781 21.783 33.812 50.026 74.684 86.398 120.171 36.367 45.453 80.924 95.513 135.201 146.781 54.25 51.236 118.272 103.654 192.835 153.021 74.518 49.347 159.609 95.62 254.793 134.039 95.119 38.418 200.374 68.948 313.531 86.621 56.557 8.836 115.05 14.46 174.983 16.277 59.927 1.822 121.292-.165 183.43-6.451 62.132-6.282 125.033-16.873 187.88-32.095 62.846-15.214 125.631-35.063 187.439-59.623 7.727-3.068 15.438-6.211 23.133-9.426 3.838-1.624 7.682-3.25 11.527-4.878 3.918-1.697 7.838-3.396 11.764-5.097 16.008-7.027 31.938-14.432 47.756-22.229 31.637-15.603 62.844-32.75 93.398-51.468 61.121-37.412 119.652-81.084 173.979-130.563 54.342-49.462 104.482-104.706 149.082-164.861 44.605-60.147 83.688-125.19 116.133-194.022 32.461-68.819 58.291-141.425 76.613-216.465 18.322-75.032 29.119-152.506 31.719-230.771 2.611-78.253-2.988-157.288-16.998-235.119-13.971-77.831-36.373-154.418-66.539-227.74-1.891-4.581-3.803-9.151-5.746-13.709l-2.955-6.867-3.119-7.112c-4.191-9.471-8.551-18.881-13.064-28.225-9.025-18.69-18.693-37.114-28.979-55.218-20.57-36.209-43.631-71.13-68.994-104.35-50.707-66.463-110.643-126.034-177.443-176.286-66.779-50.292-140.377-91.315-218.064-121.634-77.678-30.34-159.467-49.987-242.363-58.083-82.881-8.142-166.859-4.658-248.452 10.282-40.794 7.458-80.979 17.759-120.131 30.724-19.572 6.49-38.894 13.626-57.901 21.41-4.751 1.946-9.486 3.926-14.198 5.953l-7.24 3.138-7.34 3.273c-9.767 4.413-19.442 9.036-29.015 13.868-38.297 19.313-74.953 41.945-109.288 67.544-34.342 25.592-66.365 54.137-95.563 85.128-58.439 61.98-105.462 133.703-138.869 210.626-33.467 76.91-53.368 159.057-58.861 241.683-2.761 41.307-1.939 82.723 2.41 123.592 4.342 40.871 12.216 81.19 23.378 120.313 5.579 19.562 11.977 38.824 19.147 57.715 3.583 9.446 7.36 18.799 11.323 28.05l3.081 7.099 3.226 7.19c2.182 4.779 4.427 9.53 6.732 14.25 18.436 37.765 40.852 73.524 66.662 106.344 25.807 32.827 54.985 62.714 86.746 89.036 31.754 26.335 66.078 49.117 102.127 68.008 72.094 37.824 151.133 59.952 230.466 65.378 39.661 2.74 79.381 1.329 118.267-4.073 38.891-5.4 76.932-14.805 113.283-27.772 9.088-3.241 18.072-6.703 26.941-10.376 8.689-3.6 18.07-7.723 27.029-12.06 18.016-8.688 35.461-18.49 52.172-29.319 33.432-21.65 63.877-47.425 90.402-76.283 26.539-28.855 49.182-60.768 67.453-94.611 18.281-33.847 32.217-69.619 41.596-106.236 9.391-36.616 14.225-74.079 14.506-111.272.299-37.19-3.969-74.104-12.443-109.592-4.23-17.747-9.512-35.136-15.738-52.047-3.127-8.473-6.449-16.747-10.064-25.035-3.732-8.57-7.771-16.999-12.105-25.256-17.332-33.043-39.459-63.284-65.16-89.37-25.691-26.111-54.908-48.088-86.201-65.332-31.297-17.259-64.672-29.807-98.76-37.446-34.086-7.649-68.891-10.38-103.018-8.301-34.127 2.058-67.55 8.938-98.929 19.976-7.847 2.756-15.567 5.766-23.146 9.018l-2.901 1.261-2.947 1.311c-1.961.882-3.91 1.791-5.853 2.711-3.878 1.852-7.716 3.781-11.508 5.785-15.168 8.024-29.595 17.297-43.05 27.655-26.934 20.706-49.909 45.728-67.965 73.304-18.078 27.582-31.278 57.702-39.339 88.691-8.079 30.989-10.99 62.867-8.907 93.96 2.056 31.103 9.151 61.383 20.363 89.312.704 1.744 1.413 3.485 2.148 5.211l1.11 2.596 1.182 2.687c1.598 3.569 3.28 7.099 5.042 10.581 3.524 6.965 7.373 13.744 11.522 20.303 8.298 13.118 17.809 25.344 28.299 36.453 20.979 22.243 45.822 39.974 72.479 52.465 26.66 12.519 55.137 19.851 83.527 21.939 28.394 2.118 56.683-1.039 82.99-8.775 6.582-1.923 13.033-4.142 19.348-6.599 1.576-.619 3.145-1.249 4.705-1.897 1.574-.658 3.066-1.29 4.709-2.017 3.217-1.419 6.393-2.924 9.52-4.508 12.516-6.336 24.254-13.996 34.941-22.722 21.395-17.461 38.438-39.182 50.201-62.803 11.801-23.626 18.393-49.158 19.77-74.458 1.416-25.308-2.441-50.353-10.605-73.108-1.02-2.846-2.102-5.657-3.246-8.431-1.123-2.723-2.389-5.616-3.73-8.43-2.688-5.625-5.688-11.074-9-16.292-6.609-10.445-14.418-19.977-23.109-28.351-17.387-16.784-38.248-28.857-60.078-35.737-21.842-6.912-44.688-8.639-66.262-5.583-10.791 1.509-21.259 4.207-31.166 7.885-2.478.92-4.92 1.901-7.324 2.941-2.497 1.076-4.977 2.242-7.397 3.475-4.845 2.476-9.508 5.25-13.938 8.303-17.77 12.198-31.619 28.759-40.479 46.924-8.915 18.175-12.951 37.964-12.33 57.009.301 9.525 1.744 18.864 4.187 27.75 1.22 4.444 2.689 8.775 4.375 12.97.424 1.052.854 2.081 1.31 3.126.469 1.075.954 2.142 1.456 3.196 1.009 2.11 2.083 4.183 3.229 6.203 4.575 8.097 10.244 15.412 16.663 21.706 6.423 6.297 13.591 11.577 21.17 15.755 15.165 8.376 31.931 12.313 48.014 12.072 8.043-.106 15.92-1.24 23.383-3.251 3.73-1.001 7.357-2.227 10.861-3.636.881-.356 1.73-.712 2.615-1.1.896-.39 1.781-.801 2.662-1.222 1.758-.846 3.475-1.753 5.152-2.716 13.457-7.71 23.895-19.127 30.367-31.698 6.533-12.584 9.242-26.309 8.594-39.212-.314-6.456-1.455-12.713-3.264-18.58-.91-2.943-1.961-5.748-3.197-8.521-1.26-2.844-2.725-5.562-4.35-8.131-6.508-10.319-15.688-18.006-25.441-22.701-9.771-4.772-20.193-6.442-29.734-5.864-4.777.299-9.375 1.1-13.627 2.459-2.141.689-4.133 1.455-6.156 2.367-.574.271-1.148.543-1.718.813-.667.322-1.313.68-1.936 1.064-1.294.689-2.425 1.623-3.449 2.624-1.073.949-1.943 2.091-2.711 3.266-.842 1.123-1.313 2.478-1.899 3.708-.464 1.31-.789 2.656-.994 4.02-.101.681-.176 1.364-.218 2.051-.035.341-.023.688 0 1.038.027.35.004.686.014 1.028.023.685.011 1.364.127 2.042.161.682.19 1.35.304 2.015.087.666.371 1.305.452 1.957.149.624.34 1.13.454 1.569.544 1.831 1.169 3.504 1.825 5.079 2.639 6.267 5.643 11.2 8.547 15.573 2.892 4.357 5.531 8.169 8.099 11.427 2.502 3.27 4.701 6.143 6.592 8.613 1.885 2.464 3.354 4.581 4.617 6.246 2.525 3.331 3.646 5.165 3.646 5.165s-1.311-1.764-4.182-4.901c-.744-.771-1.469-1.688-2.32-2.682-.857-.988-1.799-2.073-2.822-3.255-2.094-2.356-4.529-5.096-7.301-8.212-2.871-3.101-5.727-6.813-8.925-11.092-1.57-2.157-3.28-4.438-4.862-7.027-1.576-2.598-3.181-5.413-4.692-8.703-.753-1.648-1.483-3.417-2.138-5.397l-.256-.781c-.104-.336-.236-.586-.313-.995-.095-.388-.124-.781-.278-1.169-.127-.39-.271-.776-.308-1.181-.144-.8-.166-1.603-.388-2.423-.155-.816-.123-1.637-.151-2.459-.013-.414.028-.815-.014-1.24-.036-.421-.053-.84-.004-1.248.059-.824.158-1.646.289-2.462.265-1.632.677-3.24 1.252-4.803.758-1.443 1.299-3.081 2.342-4.398.485-.684.948-1.394 1.486-2.053.278-.318.513-.688.848-.952.327-.271.623-.581.92-.891 1.217-1.205 2.554-2.348 4.106-3.17.739-.472 1.507-.909 2.302-1.307.648-.324 1.299-.648 1.952-.976 2.195-1.051 4.31-1.921 6.621-2.725 2.281-.823 4.686-1.398 7.15-1.89 2.467-.482 5.01-.832 7.607-1.023 10.373-.781 21.791.846 32.533 5.973 10.729 5.022 20.908 13.354 28.195 24.647 1.818 2.813 3.463 5.79 4.883 8.906 1.385 3.013 2.553 6.027 3.58 9.224 2.035 6.355 3.355 13.16 3.775 20.199.863 14.068-1.928 29.103-8.941 42.973-3.496 6.93-8.037 13.562-13.592 19.55-5.545 5.989-12.107 11.328-19.465 15.655-1.838 1.081-3.723 2.102-5.65 3.053-.965.476-1.938.938-2.924 1.378-.963.435-1.875.828-2.83 1.229-3.787 1.573-7.719 2.95-11.771 4.086-8.102 2.279-16.684 3.61-25.471 3.824-17.566.449-35.959-3.647-52.703-12.666-8.367-4.498-16.312-10.221-23.458-17.084-7.144-6.86-13.482-14.87-18.624-23.758-1.289-2.219-2.497-4.492-3.634-6.812-.566-1.16-1.115-2.331-1.644-3.513-.508-1.138-.988-2.246-1.462-3.386-1.883-4.54-3.537-9.235-4.92-14.064-2.769-9.656-4.458-19.837-4.898-30.246-.901-20.813 3.274-42.53 12.852-62.585 9.514-20.042 24.573-38.457 44.067-52.131 4.857-3.421 9.979-6.539 15.306-9.328 2.661-1.389 5.389-2.706 8.13-3.92 2.602-1.16 5.247-2.257 7.933-3.289 10.741-4.125 22.133-7.194 33.905-8.972 23.539-3.594 48.576-1.98 72.611 5.348 24.02 7.293 47.102 20.312 66.471 38.631 9.682 9.139 18.416 19.58 25.84 31.053 3.717 5.731 7.098 11.724 10.131 17.91.752 1.548 1.492 3.107 2.201 4.679l1.023 2.298.973 2.244c1.279 3.006 2.492 6.055 3.637 9.144 9.17 24.698 13.697 52.046 12.443 79.778-1.215 27.727-8.137 55.805-20.838 81.91-12.658 26.099-31.188 50.243-54.639 69.779-11.711 9.761-24.613 18.365-38.385 25.512-3.441 1.787-6.938 3.484-10.479 5.091-1.82.825-3.412 1.521-5.127 2.261-1.689.726-3.391 1.431-5.102 2.123-6.848 2.754-13.857 5.25-21.018 7.428-28.619 8.756-59.547 12.557-90.687 10.564-31.137-1.959-62.467-9.665-91.92-23.121-29.445-13.428-57.032-32.671-80.458-57.013-11.712-12.154-22.367-25.569-31.693-39.991-4.664-7.21-8.997-14.669-12.973-22.337-1.988-3.833-3.888-7.72-5.695-11.65l-1.337-2.958-1.241-2.816c-.822-1.871-1.615-3.758-2.402-5.649-12.553-30.293-20.679-63.315-23.294-97.347-2.645-34.023.17-69.009 8.681-103.12 8.492-34.11 22.647-67.375 42.251-97.966 19.578-30.584 44.662-58.481 74.227-81.685 14.768-11.606 30.635-22.029 47.335-31.078 4.176-2.26 8.402-4.438 12.674-6.53 2.138-1.04 4.285-2.067 6.445-3.065l3.248-1.482 3.172-1.418c8.214-3.632 16.594-7.006 25.121-10.107 34.099-12.415 70.581-20.346 107.936-22.997 37.355-2.676 75.557-.091 113.061 7.913 37.506 7.993 74.33 21.392 108.98 40.036 34.646 18.626 67.123 42.529 95.809 71.099 28.689 28.538 53.525 61.772 73.076 98.167 4.891 9.094 9.453 18.38 13.68 27.824l2.979 6.762c.967 2.242 1.922 4.493 2.859 6.753 1.875 4.521 3.688 9.079 5.438 13.671 6.996 18.371 12.973 37.3 17.805 56.651 9.686 38.697 14.797 79.072 14.902 119.846.121 40.774-4.744 81.936-14.633 122.256-9.881 40.322-24.783 79.812-44.527 117.282-19.73 37.47-44.334 72.92-73.328 105.091-28.977 32.173-62.377 61.032-99.154 85.373-18.383 12.174-37.596 23.221-57.445 33.039-9.854 4.895-20.281 9.593-29.637 13.594-9.623 4.109-19.379 7.992-29.258 11.638-39.516 14.586-81.002 25.323-123.518 31.69-42.511 6.371-86.033 8.384-129.568 5.838-87.085-5.035-174.16-28.396-253.967-69.22-39.905-20.391-78.004-45.112-113.358-73.834-35.358-28.704-67.956-61.422-96.88-97.469-28.924-36.041-54.15-75.408-74.981-117.027-2.605-5.201-5.143-10.438-7.611-15.706l-3.651-7.926-3.47-7.771c-4.43-10.034-8.659-20.187-12.681-30.447-8.047-20.521-15.263-41.479-21.591-62.788-12.661-42.619-21.755-86.652-26.989-131.37-5.241-44.719-6.626-90.115-4.076-135.462 5.071-90.709 25.96-181.164 61.903-266.164 35.877-85.01 86.88-164.631 150.774-233.774 31.922-34.572 67.032-66.51 104.771-95.222 37.73-28.719 78.089-54.194 120.296-76.006 10.55-5.457 21.215-10.683 31.981-15.677l8.092-3.706 7.928-3.535c5.11-2.265 10.248-4.481 15.406-6.659 20.63-8.714 41.628-16.733 62.925-24.052 42.6-14.623 86.424-26.365 130.986-35.006 89.13-17.312 181.169-22.122 272.214-14.145 91.064 7.926 181.135 28.553 266.92 61.036 85.795 32.461 167.338 76.796 241.604 131.552 74.281 54.707 141.234 119.902 198.105 192.929 28.445 36.499 54.375 74.928 77.561 114.814 11.592 19.942 22.502 40.246 32.705 60.849 5.104 10.301 10.033 20.675 14.779 31.117l3.533 7.843 3.311 7.466c2.174 4.944 4.313 9.904 6.428 14.876 33.771 79.584 59.184 163.042 75.389 248.079 16.246 85.036 23.316 171.606 21.355 257.478-1.941 85.886-12.896 171.063-32.164 253.709-19.27 82.654-46.834 162.789-81.785 238.915-34.934 76.141-77.264 148.272-125.816 215.153-48.543 66.887-103.334 128.503-162.906 183.822-59.557 55.34-123.896 104.354-191.195 146.471-33.646 21.07-68.033 40.412-102.908 58.041-17.438 8.813-35 17.188-52.652 25.146-4.293 1.914-8.584 3.826-12.867 5.735-4.176 1.819-8.344 3.639-12.51 5.456-8.35 3.597-16.723 7.115-25.111 10.556-67.129 27.527-135.492 49.967-204.055 67.346-68.563 17.392-137.316 29.729-205.326 37.335-68.015 7.612-135.28 10.507-201.042 9.201-65.769-1.299-130.035-6.794-192.238-15.845-124.455-18.101-240.489-50.438-345.578-91.618-105.16-41.186-199.425-91.184-282.165-144.77-82.79-53.606-154.086-110.775-214.624-166.812-60.568-56.068-110.43-110.971-151.191-160.891-40.769-49.957-72.503-94.923-97.005-132.14-24.484-37.252-41.788-66.769-53.225-86.762-5.708-10.006-9.937-17.646-12.756-22.775-2.805-5.137-4.23-7.746-4.23-7.746z" fill="#2e6a93"/>
   <rect fill="url(#a)" height="675" opacity=".05" width="1200" y=".053"/>
   <path d="m626.372 353.712c34.14 2.991 59.43 33.131 56.492 67.354-2.992 34.19-33.506 59.605-67.808 56.607l0 0c-68.028-6.69-117.909-67.099-111.593-135.185 6.067-65.448 61.792-114.335 126.536-112.867-31.147.835-57.445 24.944-60.208 56.74-2.958 34.226 22.297 64.351 56.581 67.351.35.024-.327 0 0 0" stroke="#000" stroke-miterlimit="10" stroke-width="3.652"/>
   <path d="m624.491 351.907c34.191 2.912 59.503 33.124 56.518 67.292-2.991 34.24-33.455 59.655-67.756 56.65l0 0c-68.065-6.706-117.937-67.154-111.616-135.246 6.077-65.384 61.787-114.272 126.556-112.811-31.146.84-57.443 24.942-60.243 56.746-2.96 34.195 22.294 64.37 56.541 67.369.347.025-.25 0 0 0" fill="#fff" stroke="#000" stroke-miterlimit="10" stroke-width="3.652"/>
</svg>
