<?xml version="1.0" standalone="no"?>
<!DOCTYPE svg PUBLIC "-//W3C//DTD SVG 20010904//EN"
 "http://www.w3.org/TR/2001/REC-SVG-20010904/DTD/svg10.dtd">
<svg version="1.0" xmlns="http://www.w3.org/2000/svg"
 width="1280.000000pt" height="1280.000000pt" viewBox="0 0 1280.000000 1280.000000"
 preserveAspectRatio="xMidYMid meet">
<metadata>
Created by potrace 1.15, written by Peter Selinger 2001-2017
</metadata>
<g transform="translate(0.000000,1280.000000) scale(0.100000,-0.100000)"
fill="#000000" stroke="none">
<path d="M6757 12777 c4 -7 48 -73 97 -147 550 -830 989 -1719 1230 -2493 184
-591 265 -1103 253 -1587 -10 -393 -72 -676 -207 -957 -229 -478 -623 -752
-1185 -827 l-110 -15 113 5 c252 11 479 65 682 160 509 240 814 699 922 1387
19 125 22 180 22 457 0 269 -3 339 -22 480 -119 885 -456 1787 -1023 2737
-213 356 -396 558 -680 753 -89 61 -106 70 -92 47z"/>
<path d="M5876 12756 c11 -13 64 -75 120 -137 1089 -1231 1817 -2552 1998
-3629 71 -416 60 -809 -30 -1123 -149 -516 -519 -875 -1054 -1022 -97 -27 -86
-32 21 -10 346 73 636 222 854 440 261 261 411 593 467 1035 17 137 14 468 -6
635 -111 920 -584 1943 -1369 2965 -288 374 -447 536 -676 685 -110 72 -200
123 -285 160 l-58 26 18 -25z"/>
<path d="M7715 12508 c609 -1265 955 -2566 955 -3595 0 -936 -281 -1641 -790
-1982 -241 -161 -463 -228 -795 -239 -235 -7 -186 -20 83 -21 481 -2 827 133
1137 444 250 250 412 557 519 980 218 869 83 2047 -376 3280 -198 533 -315
764 -506 1002 -74 92 -285 303 -303 303 -4 0 30 -78 76 -172z"/>
<path d="M4990 12627 c8 -8 80 -69 158 -137 500 -428 1013 -951 1389 -1417
661 -818 1065 -1608 1193 -2333 28 -155 39 -489 21 -626 -27 -202 -72 -356
-148 -509 -163 -324 -424 -554 -806 -711 -121 -49 -76 -41 70 13 446 164 754
427 933 798 168 347 210 740 129 1215 -164 968 -877 2115 -1928 3104 -206 194
-273 250 -403 338 -159 106 -386 215 -550 262 -68 19 -77 20 -58 3z"/>
<path d="M8537 12313 c345 -1070 530 -2188 510 -3078 -9 -375 -33 -609 -92
-910 -155 -782 -499 -1338 -984 -1588 -129 -67 -215 -98 -352 -129 -91 -20
-130 -23 -314 -23 -158 1 -231 5 -294 18 -46 9 -86 15 -88 13 -3 -2 38 -13 89
-25 448 -99 825 -63 1158 110 646 337 1042 1137 1130 2278 13 173 13 625 0
823 -38 564 -150 1199 -309 1757 -87 303 -207 539 -391 771 -113 142 -114 141
-63 -17z"/>
<path d="M4120 12384 c0 -1 48 -32 108 -70 1844 -1168 3046 -2561 3249 -3766
24 -144 24 -457 0 -588 -39 -208 -131 -421 -252 -582 -122 -162 -324 -336
-515 -442 -105 -58 -57 -41 67 24 424 223 707 540 832 934 86 270 97 599 30
928 -208 1030 -1127 2191 -2489 3145 -276 193 -503 303 -760 367 -93 23 -270
56 -270 50z"/>
<path d="M9320 12081 c0 -7 11 -79 25 -160 258 -1539 207 -2946 -146 -3967
-389 -1128 -1123 -1672 -1996 -1483 -51 11 -125 31 -164 44 -40 14 -74 23 -76
21 -13 -13 264 -102 426 -137 140 -30 392 -37 534 -15 477 75 875 358 1197
851 92 141 244 450 314 635 312 833 406 1918 271 3109 -40 345 -86 537 -186
763 -60 136 -199 373 -199 339z"/>
<path d="M3330 11998 c14 -6 131 -61 260 -121 1281 -593 2354 -1367 2992
-2158 585 -725 792 -1431 593 -2026 -34 -102 -119 -263 -192 -365 -68 -96
-231 -263 -323 -332 -79 -60 -97 -76 -50 -48 92 56 243 177 334 267 263 262
411 554 457 900 18 139 6 402 -26 554 -226 1083 -1315 2206 -2965 3059 -366
189 -633 266 -965 278 -114 4 -135 2 -115 -8z"/>
<path d="M10085 11154 c-1 -485 -10 -706 -45 -1090 -143 -1551 -609 -2770
-1292 -3382 -513 -459 -1121 -546 -1722 -246 -38 19 -70 33 -72 31 -8 -8 216
-123 323 -166 240 -96 383 -125 623 -125 256 0 419 39 655 154 850 414 1478
1611 1684 3210 60 464 89 1114 61 1365 -24 210 -93 464 -176 644 l-39 84 0
-479z"/>
<path d="M2705 11546 c-5 -3 -41 -8 -80 -12 -84 -8 -88 -6 145 -74 1257 -370
2393 -936 3150 -1570 583 -489 946 -1015 1062 -1538 30 -132 32 -444 5 -569
-58 -271 -195 -526 -395 -736 -54 -55 -83 -91 -66 -80 57 40 268 268 337 364
121 170 219 391 264 600 28 130 25 457 -6 599 -118 553 -494 1104 -1098 1610
-586 491 -1426 946 -2318 1253 -359 124 -481 148 -780 153 -115 2 -214 2 -220
0z"/>
<path d="M10770 11064 c0 -5 -9 -85 -20 -179 -97 -823 -260 -1577 -485 -2235
-502 -1468 -1272 -2396 -2130 -2566 -134 -26 -378 -24 -511 4 -202 43 -390
122 -574 241 -116 76 -63 27 75 -68 449 -309 932 -388 1406 -232 127 42 332
144 454 226 908 607 1596 1988 1870 3750 46 295 44 536 -6 787 -26 131 -79
313 -79 272z"/>
<path d="M2201 11014 c-138 -20 -319 -66 -295 -75 10 -4 100 -19 199 -34 478
-70 1013 -186 1474 -320 534 -155 954 -317 1396 -539 530 -267 894 -523 1220
-858 338 -347 523 -686 581 -1063 19 -122 14 -342 -11 -460 -46 -222 -153
-455 -293 -640 -25 -33 -35 -51 -23 -40 32 27 127 153 194 255 117 180 207
404 244 600 26 142 23 401 -6 540 -81 382 -284 736 -617 1076 -625 636 -1639
1143 -2875 1438 -190 45 -532 113 -639 126 -117 14 -435 11 -549 -6z"/>
<path d="M1985 10459 c-207 -20 -471 -89 -650 -170 l-40 -19 75 0 c166 0 678
-21 880 -35 1727 -122 3117 -608 3830 -1341 166 -171 266 -306 354 -482 216
-429 204 -889 -33 -1349 -71 -138 -49 -115 39 39 105 185 179 377 217 563 26
129 25 445 -1 565 -77 352 -271 682 -571 969 -693 662 -1901 1110 -3330 1236
-383 33 -599 40 -770 24z"/>
<path d="M11341 10277 c-97 -386 -275 -950 -411 -1302 -625 -1628 -1512 -2740
-2425 -3044 -200 -66 -262 -76 -495 -76 -182 0 -216 3 -300 24 -257 64 -470
179 -700 380 l-75 65 70 -73 c39 -40 111 -107 160 -149 666 -560 1487 -516
2290 122 128 102 456 430 567 566 501 618 895 1365 1198 2269 168 503 209 718
197 1031 -6 144 -24 298 -36 312 -3 4 -21 -52 -40 -125z"/>
<path d="M2315 9894 c-439 -25 -647 -46 -806 -80 -126 -26 -298 -82 -414 -134
-74 -33 -287 -151 -282 -156 2 -2 68 5 148 16 1533 204 2925 113 3922 -257
752 -278 1248 -694 1440 -1208 117 -313 113 -662 -12 -1017 -17 -45 -28 -84
-27 -86 6 -6 75 165 109 273 62 191 81 316 81 515 0 265 -43 448 -159 678
-368 726 -1356 1243 -2685 1407 -288 35 -482 46 -865 49 -214 2 -417 2 -450 0z"/>
<path d="M11846 9585 c-128 -325 -420 -939 -601 -1265 -842 -1512 -1853 -2479
-2797 -2674 -563 -116 -1049 57 -1458 519 -54 61 -34 27 39 -65 359 -458 847
-685 1374 -640 504 43 1004 281 1532 729 127 108 424 404 541 541 409 478 747
993 1060 1620 197 395 258 549 308 772 35 160 48 283 44 433 l-3 129 -39 -99z"/>
<path d="M2955 9420 c-474 -25 -986 -98 -1490 -212 -405 -91 -676 -211 -944
-418 -50 -39 -91 -72 -91 -75 0 -2 30 5 68 16 129 38 608 159 767 193 742 162
1377 236 2025 236 718 0 1279 -90 1780 -287 895 -352 1318 -1025 1150 -1833
-10 -52 -18 -96 -16 -97 5 -6 44 144 67 255 29 141 37 452 15 587 -150 912
-1077 1511 -2516 1625 -192 15 -615 20 -815 10z"/>
<path d="M3460 9020 c-647 -34 -1323 -173 -2041 -419 -209 -72 -455 -166 -559
-213 -111 -51 -283 -157 -386 -236 -100 -77 -253 -219 -285 -263 l-20 -29 48
21 c531 232 943 386 1400 524 1655 501 3067 482 3864 -53 453 -305 681 -762
656 -1317 -5 -99 -4 -112 5 -75 6 26 11 153 12 295 1 225 -2 260 -22 355 -49
224 -143 435 -267 601 -263 352 -729 616 -1295 734 -306 64 -752 94 -1110 75z"/>
<path d="M12150 8653 c-963 -1617 -2158 -2784 -3235 -3160 -250 -87 -462 -125
-700 -125 -252 -1 -431 39 -642 142 -249 122 -469 329 -628 589 -41 69 -55 81
-25 21 160 -313 414 -589 685 -744 139 -79 326 -143 500 -171 120 -20 405 -20
538 0 1085 162 2305 1148 3273 2647 179 278 290 534 343 793 20 99 37 235 30
235 -2 0 -65 -102 -139 -227z"/>
<path d="M3602 8655 c-757 -78 -1548 -323 -2363 -730 -602 -301 -826 -456
-1050 -723 -74 -88 -159 -204 -159 -216 0 -2 91 51 203 118 1247 756 2436
1200 3497 1308 164 16 584 16 725 0 324 -39 531 -95 770 -212 170 -83 290
-166 409 -285 253 -251 373 -530 425 -985 9 -77 9 -73 5 55 -11 315 -59 518
-179 760 -80 160 -161 270 -297 400 -270 260 -640 425 -1115 496 -180 27 -668
35 -871 14z"/>
<path d="M3935 8343 c-981 -83 -2097 -569 -3193 -1391 -275 -206 -433 -365
-577 -582 -67 -99 -160 -268 -153 -275 2 -3 26 15 54 39 258 224 799 627 1140
849 1142 743 2217 1138 3096 1137 560 -1 965 -145 1274 -454 202 -203 328
-436 399 -741 34 -143 30 -77 -4 90 -160 770 -681 1228 -1502 1320 -120 13
-419 18 -534 8z"/>
<path d="M4055 8039 c-1020 -97 -2236 -783 -3333 -1879 -250 -251 -362 -397
-477 -628 -54 -107 -140 -321 -132 -328 2 -2 35 31 73 73 154 173 449 475 628
646 992 941 1972 1559 2862 1806 495 138 958 146 1329 25 421 -138 754 -474
910 -917 15 -43 30 -76 32 -73 3 2 -16 66 -41 142 -225 673 -703 1061 -1398
1134 -112 12 -323 11 -453 -1z"/>
<path d="M12490 7932 c-486 -613 -1032 -1180 -1560 -1622 -614 -513 -1257
-888 -1839 -1074 -488 -157 -951 -173 -1323 -47 -378 128 -686 419 -862 816
-44 98 -47 87 -5 -20 540 -1409 2171 -1443 3941 -82 416 319 928 815 1288
1244 201 240 350 521 430 806 12 44 20 80 18 82 -2 2 -41 -44 -88 -103z"/>
<path d="M4185 7754 c-16 -2 -66 -9 -110 -15 -124 -16 -295 -57 -448 -106
-930 -299 -1947 -1113 -2804 -2243 -190 -251 -273 -388 -353 -586 -58 -140
-142 -446 -127 -460 2 -2 42 54 90 125 253 372 581 795 910 1171 157 179 665
681 837 827 567 481 1080 793 1592 968 432 148 839 175 1198 79 113 -30 328
-132 420 -200 198 -145 349 -322 474 -555 62 -115 58 -92 -8 44 -104 214 -218
377 -363 521 -215 211 -464 344 -765 407 -82 17 -145 22 -308 24 -113 2 -218
1 -235 -1z"/>
<path d="M4290 7479 c-273 -28 -525 -106 -835 -259 -723 -357 -1448 -1056
-2070 -1995 -251 -380 -469 -765 -554 -978 -76 -191 -128 -424 -138 -622 l-5
-110 54 110 c427 859 940 1646 1461 2245 141 162 530 547 667 661 534 444
1005 685 1500 770 113 20 404 17 520 -5 187 -34 374 -113 543 -229 108 -73
278 -239 361 -352 71 -97 87 -113 56 -60 -115 198 -358 461 -535 578 -307 202
-648 284 -1025 246z"/>
<path d="M4440 7219 c-234 -17 -473 -87 -730 -215 -866 -430 -1684 -1444
-2270 -2814 -169 -394 -244 -616 -285 -845 -20 -105 -31 -450 -18 -540 l9 -60
53 160 c658 1972 1672 3445 2733 3970 316 157 627 224 911 197 345 -32 626
-168 912 -441 55 -53 91 -85 80 -71 -280 342 -612 559 -971 634 -59 12 -298
39 -314 34 -3 0 -52 -4 -110 -9z"/>
<path d="M12709 7134 c-19 -20 -115 -111 -214 -203 -1164 -1074 -2362 -1788
-3390 -2019 -682 -154 -1260 -90 -1671 187 -276 185 -485 482 -584 830 -33
113 -37 87 -6 -35 41 -163 74 -252 146 -399 84 -173 166 -290 290 -415 461
-463 1207 -588 2110 -354 871 226 1829 775 2730 1566 241 211 381 381 512 618
41 74 121 251 115 256 -2 2 -19 -12 -38 -32z"/>
<path d="M4533 6970 c-204 -21 -391 -77 -598 -179 -971 -478 -1804 -1821
-2215 -3571 -27 -113 -56 -251 -64 -306 -36 -229 -30 -492 15 -716 32 -160 32
-160 68 28 193 1019 469 1890 832 2625 557 1129 1258 1821 1999 1976 119 25
421 25 537 0 227 -49 471 -165 663 -317 l65 -51 -60 57 c-222 213 -568 391
-850 438 -118 20 -290 27 -392 16z"/>
<path d="M6798 6813 c7 -3 16 -2 19 1 4 3 -2 6 -13 5 -11 0 -14 -3 -6 -6z"/>
<path d="M4700 6739 c-312 -22 -637 -158 -925 -387 -93 -74 -280 -257 -370
-362 -443 -519 -799 -1300 -1011 -2212 -143 -620 -232 -1412 -195 -1733 22
-197 94 -477 145 -572 l15 -28 1 40 c3 329 67 1015 136 1455 315 2041 1165
3455 2208 3676 350 74 744 -3 1084 -211 77 -47 44 -16 -40 38 -349 224 -693
321 -1048 296z"/>
<path d="M4870 6530 c-1064 -82 -1873 -1327 -2059 -3170 -35 -341 -44 -586
-38 -998 3 -213 11 -443 17 -512 20 -233 83 -482 172 -685 41 -92 118 -239
123 -233 2 2 -3 64 -11 138 -87 880 -78 1762 26 2500 175 1230 596 2143 1197
2594 171 128 356 214 568 264 97 23 131 26 290 26 147 -1 199 -5 284 -23 118
-25 263 -70 346 -106 31 -14 54 -21 51 -16 -8 12 -190 91 -297 129 -126 44
-302 81 -441 92 -68 5 -125 9 -128 8 -3 0 -48 -4 -100 -8z"/>
<path d="M4965 6335 c-325 -52 -607 -198 -850 -439 -784 -781 -1051 -2417
-699 -4286 41 -220 72 -344 114 -465 39 -110 124 -292 186 -393 49 -81 153
-226 159 -220 2 1 -19 98 -46 213 -155 664 -244 1243 -285 1863 -12 180 -15
330 -11 627 6 394 11 484 47 765 150 1191 637 2000 1341 2230 153 50 246 64
439 64 177 1 254 -8 404 -45 43 -11 80 -18 82 -16 5 5 -184 61 -261 77 -182
40 -459 51 -620 25z"/>
<path d="M12766 6261 c-9 -15 -415 -295 -593 -410 -734 -473 -1435 -819 -2103
-1041 -346 -115 -645 -188 -980 -238 -159 -23 -204 -26 -485 -26 -212 -1 -339
3 -400 12 -446 67 -769 214 -1015 461 -228 228 -355 495 -415 866 l-15 90 6
-95 c7 -110 36 -284 65 -385 141 -490 457 -840 926 -1029 259 -104 508 -152
843 -163 991 -31 2225 393 3420 1175 258 169 391 281 539 457 108 127 246 335
223 335 -6 0 -13 -4 -16 -9z"/>
<path d="M5235 6189 c-325 -43 -611 -180 -843 -403 -382 -368 -604 -900 -688
-1647 -22 -193 -25 -763 -6 -974 55 -603 172 -1167 368 -1785 140 -440 246
-665 423 -895 61 -80 222 -257 228 -251 3 2 -27 85 -65 183 -516 1314 -768
2609 -702 3608 81 1212 572 1971 1375 2121 78 15 147 19 312 19 116 0 210 1
209 2 -1 1 -55 9 -119 18 -124 16 -387 18 -492 4z"/>
<path d="M5868 6153 c7 -3 16 -2 19 1 4 3 -2 6 -13 5 -11 0 -14 -3 -6 -6z"/>
<path d="M5491 6074 c-381 -55 -716 -233 -947 -502 -773 -898 -643 -2715 332
-4642 193 -381 365 -599 647 -819 37 -30 69 -52 71 -50 2 2 -44 87 -101 189
-544 960 -952 2014 -1107 2860 -69 376 -91 602 -90 945 1 503 73 860 244 1200
88 177 174 297 305 424 254 247 559 375 960 400 l120 8 -170 0 c-94 1 -212 -5
-264 -13z"/>
<path d="M5958 6023 c7 -3 16 -2 19 1 4 3 -2 6 -13 5 -11 0 -14 -3 -6 -6z"/>
<path d="M5765 6001 c-411 -73 -742 -251 -968 -520 -763 -906 -484 -2677 707
-4491 292 -444 450 -627 701 -810 64 -47 264 -170 277 -170 4 0 -62 91 -146
203 -616 815 -1081 1622 -1376 2387 -451 1168 -474 2158 -65 2781 204 312 539
532 934 614 137 28 88 33 -64 6z"/>
<path d="M5890 5935 c-706 -206 -1117 -689 -1200 -1410 -13 -114 -13 -391 0
-515 101 -971 686 -2099 1644 -3168 250 -279 396 -414 581 -534 101 -67 320
-177 410 -208 l59 -20 -255 257 c-817 825 -1398 1612 -1798 2433 -330 679
-482 1330 -431 1841 64 632 385 1068 951 1293 64 25 122 46 130 46 8 0 21 5
29 10 24 16 2 11 -120 -25z"/>
<path d="M6080 5920 c-8 -5 -10 -10 -5 -10 6 0 17 5 25 10 8 5 11 10 5 10 -5
0 -17 -5 -25 -10z"/>
<path d="M6687 5810 c-8 -138 4 -331 28 -458 150 -787 795 -1268 1840 -1373
153 -15 580 -15 750 0 753 67 1544 284 2363 648 456 202 641 321 872 559 103
106 178 194 166 194 -4 0 -120 -58 -259 -128 -1182 -601 -2296 -948 -3277
-1023 -198 -15 -685 -6 -830 15 -350 50 -582 120 -830 247 -391 202 -648 511
-753 909 -36 135 -49 224 -56 390 l-6 145 -8 -125z"/>
<path d="M5940 5861 c-562 -257 -890 -693 -961 -1275 -17 -138 -7 -438 20
-588 186 -1056 999 -2217 2266 -3239 260 -210 462 -324 730 -414 91 -30 245
-68 251 -62 3 2 -8 12 -23 22 -54 35 -349 259 -498 378 -560 448 -1091 964
-1478 1436 -980 1194 -1319 2341 -920 3114 134 259 353 470 658 634 105 56 86
54 -45 -6z"/>
<path d="M6054 5824 c-447 -280 -708 -643 -785 -1092 -24 -144 -26 -395 -3
-549 34 -233 116 -491 235 -741 80 -170 143 -278 275 -477 345 -521 884 -1066
1514 -1531 354 -261 825 -558 1036 -653 203 -91 476 -163 669 -177 l90 -6
-195 107 c-1956 1077 -3222 2401 -3447 3607 -27 146 -24 461 5 595 26 120 71
252 117 344 112 222 309 435 565 611 57 39 6 14 -76 -38z"/>
<path d="M6611 5829 c-89 -415 -50 -802 113 -1128 263 -525 841 -885 1659
-1036 772 -141 1696 -83 2705 170 248 63 537 148 679 201 211 79 433 209 608
356 161 136 161 136 -6 77 -1257 -448 -2503 -667 -3459 -609 -322 20 -592 59
-830 120 -826 214 -1317 645 -1452 1273 -18 85 -22 135 -22 297 0 107 5 224
12 259 14 78 8 94 -7 20z"/>
<path d="M6145 5787 c-363 -303 -565 -644 -620 -1047 -97 -710 343 -1547 1199
-2283 434 -373 916 -687 1506 -982 530 -265 833 -381 1124 -431 98 -17 463
-31 493 -20 13 5 -35 27 -162 75 -1122 423 -2042 934 -2765 1535 -179 149
-525 493 -648 644 -337 415 -524 794 -593 1202 -18 108 -16 355 5 468 57 313
217 593 479 837 50 47 89 85 86 85 -2 0 -49 -38 -104 -83z"/>
<path d="M6458 5818 c-189 -362 -263 -673 -236 -993 91 -1073 1353 -1904 3233
-2129 316 -38 489 -48 922 -53 576 -7 724 8 1009 102 123 40 372 150 363 159
-2 3 -49 1 -104 -4 -55 -5 -270 -15 -477 -22 -677 -22 -1358 19 -1958 117
-1531 252 -2577 876 -2844 1698 -52 160 -61 222 -61 427 0 157 4 201 23 289
31 136 73 263 121 367 42 88 47 114 9 42z"/>
<path d="M6357 5788 c-172 -243 -273 -463 -329 -715 -29 -133 -32 -423 -5
-558 122 -605 600 -1164 1375 -1609 635 -364 1482 -642 2377 -781 384 -59 485
-69 685 -69 203 0 327 14 495 55 95 24 237 69 248 79 5 4 -40 10 -100 14 -303
20 -777 76 -1133 136 -1833 307 -3198 1018 -3683 1920 -59 110 -111 244 -143
373 -32 125 -44 375 -25 509 30 208 121 446 245 638 25 39 44 70 41 70 -2 0
-24 -28 -48 -62z"/>
<path d="M6507 5737 c-44 -135 -72 -253 -87 -367 -15 -111 -15 -334 0 -435 79
-543 451 -1000 1069 -1313 462 -235 950 -365 1646 -439 140 -15 255 -18 655
-18 505 1 611 6 1020 55 526 64 797 132 1061 266 101 52 324 192 317 199 -2 2
-30 -3 -63 -11 -202 -47 -675 -128 -985 -168 -517 -67 -742 -81 -1295 -81
-515 1 -651 9 -1015 61 -847 121 -1484 383 -1904 785 -418 399 -560 940 -395
1502 33 112 16 86 -24 -36z"/>
<path d="M6239 5763 c-233 -245 -389 -536 -450 -840 -27 -137 -30 -372 -6
-513 56 -331 220 -672 475 -990 100 -124 319 -348 457 -467 632 -546 1552
-1008 2591 -1303 387 -110 500 -131 749 -137 160 -5 213 -2 337 16 209 30 213
33 82 61 -165 34 -638 153 -819 205 -1641 476 -2883 1223 -3448 2075 -84 126
-194 350 -236 479 -75 230 -97 502 -57 706 50 258 170 504 345 713 34 39 59
72 57 72 -2 0 -37 -35 -77 -77z"/>
</g>
</svg>
